999
"DXF R12 Output" (www.mydxf.blogspot.com)
 0 
SECTION
 2 
HEADER
 9 
$ACADVER
 1 
AC1009
 9 
$EXTMIN
 10 
 0 
 20 
 0 
 9 
$EXTMAX
 10 
 8.5 
 20 
 11 
 0 
ENDSEC
 0 
SECTION
 2 
ENTITIES
0
LINE
8
Image
10
90.222803
20
133.990279
11
83.398673
21
136.487787
0
LINE
8
Image
10
83.398673
20
136.487787
11
77.189156
21
138.389236
0
LINE
8
Image
10
77.189156
20
138.389236
11
73.669834
21
139.442329
0
LINE
8
Image
10
73.669834
20
139.442329
11
71.962020
21
140.101181
0
LINE
8
Image
10
71.962020
20
140.101181
11
71.613663
21
140.276886
0
LINE
8
Image
10
71.613663
20
140.276886
11
70.952153
21
140.300289
0
LINE
8
Image
10
70.952153
20
140.300289
11
67.720506
21
139.827697
0
LINE
8
Image
10
67.720506
20
139.827697
11
62.573880
21
139.173770
0
LINE
8
Image
10
62.573880
20
139.173770
11
61.164735
21
139.378299
0
LINE
8
Image
10
61.164735
20
139.378299
11
59.662733
21
139.922966
0
LINE
8
Image
10
59.662733
20
139.922966
11
58.306545
21
140.697604
0
LINE
8
Image
10
58.306545
20
140.697604
11
57.334840
21
141.592048
0
LINE
8
Image
10
57.334840
20
141.592048
11
56.616038
21
142.668902
0
LINE
8
Image
10
56.616038
20
142.668902
11
56.260816
21
143.763551
0
LINE
8
Image
10
56.260816
20
143.763551
11
56.202200
21
145.302148
0
LINE
8
Image
10
56.202200
20
145.302148
11
56.373215
21
147.710844
0
LINE
8
Image
10
56.373215
20
147.710844
11
56.558143
21
151.492648
0
LINE
8
Image
10
56.558143
20
151.492648
11
48.515770
21
154.380257
0
LINE
8
Image
10
48.515770
20
154.380257
11
45.705174
21
155.419802
0
LINE
8
Image
10
45.705174
20
155.419802
11
43.880440
21
156.386197
0
LINE
8
Image
10
43.880440
20
156.386197
11
43.291624
21
156.874183
0
LINE
8
Image
10
43.291624
20
156.874183
11
42.893895
21
157.382545
0
LINE
8
Image
10
42.893895
20
157.382545
11
42.668794
21
157.924171
0
LINE
8
Image
10
42.668794
20
157.924171
11
42.597863
21
158.511948
0
LINE
8
Image
10
42.597863
20
158.511948
11
42.771644
21
159.250790
0
LINE
8
Image
10
42.771644
20
159.250790
11
43.047429
21
159.489041
0
LINE
8
Image
10
43.047429
20
159.489041
11
43.501193
21
159.651839
0
LINE
8
Image
10
43.501193
20
159.651839
11
45.098814
21
159.787060
0
LINE
8
Image
10
45.098814
20
159.787060
11
47.876815
21
159.728421
0
LINE
8
Image
10
47.876815
20
159.728421
11
54.299294
21
159.797049
0
LINE
8
Image
10
54.299294
20
159.797049
11
57.311652
21
160.008053
0
LINE
8
Image
10
57.311652
20
160.008053
11
59.531175
21
160.304231
0
LINE
8
Image
10
59.531175
20
160.304231
11
60.046675
21
160.463873
0
LINE
8
Image
10
60.046675
20
160.463873
11
60.481219
21
160.774044
0
LINE
8
Image
10
60.481219
20
160.774044
11
61.515548
21
162.245140
0
LINE
8
Image
10
61.515548
20
162.245140
11
62.792414
21
164.190036
0
LINE
8
Image
10
62.792414
20
164.190036
11
63.322206
21
164.781298
0
LINE
8
Image
10
63.322206
20
164.781298
11
63.833478
21
165.145326
0
LINE
8
Image
10
63.833478
20
165.145326
11
64.366664
21
165.302288
0
LINE
8
Image
10
64.366664
20
165.302288
11
64.962194
21
165.272352
0
LINE
8
Image
10
64.962194
20
165.272352
11
66.502016
21
164.732458
0
LINE
8
Image
10
66.502016
20
164.732458
11
67.880643
21
163.983449
0
LINE
8
Image
10
67.880643
20
163.983449
11
69.049379
21
163.051523
0
LINE
8
Image
10
69.049379
20
163.051523
11
69.999873
21
161.944715
0
LINE
8
Image
10
69.999873
20
161.944715
11
70.723771
21
160.671062
0
LINE
8
Image
10
70.723771
20
160.671062
11
71.300381
21
159.610568
0
LINE
8
Image
10
71.300381
20
159.610568
11
71.970324
21
158.876959
0
LINE
8
Image
10
71.970324
20
158.876959
11
72.823786
21
158.398482
0
LINE
8
Image
10
72.823786
20
158.398482
11
73.950949
21
158.103382
0
LINE
8
Image
10
73.950949
20
158.103382
11
77.258236
21
157.282976
0
LINE
8
Image
10
77.258236
20
157.282976
11
81.139641
21
156.426340
0
LINE
8
Image
10
81.139641
20
156.426340
11
86.704762
21
155.427506
0
LINE
8
Image
10
86.704762
20
155.427506
11
92.077604
21
154.599756
0
LINE
8
Image
10
92.077604
20
154.599756
11
95.382171
21
154.256371
0
LINE
8
Image
10
95.382171
20
154.256371
11
96.443907
21
154.293783
0
LINE
8
Image
10
96.443907
20
154.293783
11
97.315943
21
154.452823
0
LINE
8
Image
10
97.315943
20
154.452823
11
99.587205
21
155.445894
0
LINE
8
Image
10
99.587205
20
155.445894
11
101.205210
21
156.319639
0
LINE
8
Image
10
101.205210
20
156.319639
11
102.629903
21
157.251940
0
LINE
8
Image
10
102.629903
20
157.251940
11
105.974940
21
160.071006
0
LINE
8
Image
10
105.974940
20
160.071006
11
110.554580
21
164.041820
0
LINE
8
Image
10
110.554580
20
164.041820
11
113.239497
21
166.151625
0
LINE
8
Image
10
113.239497
20
166.151625
11
114.027074
21
166.544905
0
LINE
8
Image
10
114.027074
20
166.544905
11
114.778460
21
166.707740
0
LINE
8
Image
10
114.778460
20
166.707740
11
115.518955
21
166.751184
0
LINE
8
Image
10
115.518955
20
166.751184
11
116.224505
21
166.622894
0
LINE
8
Image
10
116.224505
20
166.622894
11
118.533184
21
165.539127
0
LINE
8
Image
10
118.533184
20
165.539127
11
136.438574
21
156.375808
0
LINE
8
Image
10
136.438574
20
156.375808
11
140.626055
21
154.114033
0
LINE
8
Image
10
140.626055
20
154.114033
11
144.648034
21
151.578349
0
LINE
8
Image
10
144.648034
20
151.578349
11
145.739783
21
150.593032
0
LINE
8
Image
10
145.739783
20
150.593032
11
146.290507
21
149.689227
0
LINE
8
Image
10
146.290507
20
149.689227
11
147.088341
21
147.373091
0
LINE
8
Image
10
147.088341
20
147.373091
11
147.471628
21
145.849927
0
LINE
8
Image
10
147.471628
20
145.849927
11
147.599676
21
144.159702
0
LINE
8
Image
10
147.599676
20
144.159702
11
147.490533
21
142.377009
0
LINE
8
Image
10
147.490533
20
142.377009
11
147.162249
21
140.576439
0
LINE
8
Image
10
147.162249
20
140.576439
11
146.632873
21
138.832584
0
LINE
8
Image
10
146.632873
20
138.832584
11
145.920454
21
137.220036
0
LINE
8
Image
10
145.920454
20
137.220036
11
145.043042
21
135.813385
0
LINE
8
Image
10
145.043042
20
135.813385
11
144.018686
21
134.687225
0
LINE
8
Image
10
144.018686
20
134.687225
11
142.750094
21
133.735494
0
LINE
8
Image
10
142.750094
20
133.735494
11
141.291413
21
132.880705
0
LINE
8
Image
10
141.291413
20
132.880705
11
139.914978
21
132.264189
0
LINE
8
Image
10
139.914978
20
132.264189
11
138.893126
21
132.027277
0
LINE
8
Image
10
138.893126
20
132.027277
11
137.632999
21
132.380292
0
LINE
8
Image
10
137.632999
20
132.380292
11
135.430252
21
133.259668
0
LINE
8
Image
10
135.430252
20
133.259668
11
130.719917
21
135.519482
0
LINE
8
Image
10
130.719917
20
135.519482
11
126.414278
21
138.065707
0
LINE
8
Image
10
126.414278
20
138.065707
11
121.972763
21
140.973040
0
LINE
8
Image
10
121.972763
20
140.973040
11
119.165990
21
142.742427
0
LINE
8
Image
10
119.165990
20
142.742427
11
116.229678
21
144.377284
0
LINE
8
Image
10
116.229678
20
144.377284
11
113.736089
21
145.578697
0
LINE
8
Image
10
113.736089
20
145.578697
11
112.257484
21
146.047747
0
LINE
8
Image
10
112.257484
20
146.047747
11
111.626443
21
145.961246
0
LINE
8
Image
10
111.626443
20
145.961246
11
110.949397
21
145.694259
0
LINE
8
Image
10
110.949397
20
145.694259
11
109.441134
21
144.604181
0
LINE
8
Image
10
109.441134
20
144.604181
11
107.700385
21
142.748214
0
LINE
8
Image
10
107.700385
20
142.748214
11
105.694836
21
140.097059
0
LINE
8
Image
10
105.694836
20
140.097059
11
103.354145
21
137.114197
0
LINE
8
Image
10
103.354145
20
137.114197
11
101.557850
21
135.458244
0
LINE
8
Image
10
101.557850
20
135.458244
11
99.350482
21
133.799000
0
LINE
8
Image
10
99.350482
20
133.799000
11
97.303416
21
132.529763
0
LINE
8
Image
10
97.303416
20
132.529763
11
95.988024
21
132.043829
0
LINE
8
Image
10
95.988024
20
132.043829
11
90.222803
21
133.990279
0
LINE
8
Image
10
90.222803
20
133.990279
11
90.222803
21
133.990279
 0 
ENDSEC
 0 
EOF