999
"DXF R12 Output" (www.mydxf.blogspot.com)
 0 
SECTION
 2 
HEADER
 9 
$ACADVER
 1 
AC1009
 9 
$EXTMIN
 10 
 0 
 20 
 0 
 9 
$EXTMAX
 10 
 8.5 
 20 
 11 
 0 
ENDSEC
 0 
SECTION
 2 
ENTITIES
0
LINE
8
Layer 1
10
180.466495
20
135.885778
11
180.519510
21
136.160439
0
LINE
8
Layer 1
10
180.519510
20
136.160439
11
180.626345
21
136.045631
0
LINE
8
Layer 1
10
180.626345
20
136.045631
11
180.605470
21
135.538513
0
LINE
8
Layer 1
10
180.605470
20
135.538513
11
180.498710
21
135.574584
0
LINE
8
Layer 1
10
180.498710
20
135.574584
11
180.466505
21
135.885778
0
LINE
8
Layer 1
10
180.466505
20
135.885778
11
180.466495
21
135.885778
0
LINE
8
Layer 1
10
220.863744
20
148.883135
11
221.922076
21
148.877790
0
LINE
8
Layer 1
10
221.922076
20
148.877790
11
222.017150
21
148.831461
0
LINE
8
Layer 1
10
222.017150
20
148.831461
11
221.936017
21
148.794322
0
LINE
8
Layer 1
10
221.936017
20
148.794322
11
221.323679
21
148.762723
0
LINE
8
Layer 1
10
221.323679
20
148.762723
11
220.752012
21
148.800296
0
LINE
8
Layer 1
10
220.752012
20
148.800296
11
220.863744
21
148.883130
0
LINE
8
Layer 1
10
220.863744
20
148.883130
11
220.863744
21
148.883135
0
LINE
8
Layer 1
10
174.421580
20
196.585529
11
174.457125
21
197.103533
0
LINE
8
Layer 1
10
174.457125
20
197.103533
11
174.542582
21
197.048549
0
LINE
8
Layer 1
10
174.542582
20
197.048549
11
174.542582
21
196.122509
0
LINE
8
Layer 1
10
174.542582
20
196.122509
11
174.457125
21
196.067525
0
LINE
8
Layer 1
10
174.457125
20
196.067525
11
174.421580
21
196.585529
0
LINE
8
Layer 1
10
174.421580
20
196.585529
11
174.421580
21
196.585529
0
LINE
8
Layer 1
10
101.599872
20
235.082356
11
102.629716
21
236.008396
0
LINE
8
Layer 1
10
102.629716
20
236.008396
11
101.864455
21
235.082356
0
LINE
8
Layer 1
10
101.864455
20
235.082356
11
100.834611
21
234.156315
0
LINE
8
Layer 1
10
100.834611
20
234.156315
11
101.599872
21
235.082356
0
LINE
8
Layer 1
10
101.599872
20
235.082356
11
101.599872
21
235.082356
0
LINE
8
Layer 1
10
181.970043
20
9.447905
11
183.028375
21
9.442613
0
LINE
8
Layer 1
10
183.028375
20
9.442613
11
183.123449
21
9.396282
0
LINE
8
Layer 1
10
183.123449
20
9.396282
11
183.042316
21
9.359144
0
LINE
8
Layer 1
10
183.042316
20
9.359144
11
182.429979
21
9.327546
0
LINE
8
Layer 1
10
182.429979
20
9.327546
11
181.858311
21
9.365110
0
LINE
8
Layer 1
10
181.858311
20
9.365110
11
181.970043
21
9.447957
0
LINE
8
Layer 1
10
181.970043
20
9.447957
11
181.970043
21
9.447905
0
LINE
8
Layer 1
10
102.865510
20
29.299858
11
105.511340
21
29.298535
0
LINE
8
Layer 1
10
105.511340
20
29.298535
11
105.787103
21
29.260297
0
LINE
8
Layer 1
10
105.787103
20
29.260297
11
105.615457
21
29.229171
0
LINE
8
Layer 1
10
105.615457
20
29.229171
11
104.113411
21
29.201052
0
LINE
8
Layer 1
10
104.113411
20
29.201052
11
102.655434
21
29.230611
0
LINE
8
Layer 1
10
102.655434
20
29.230611
11
102.531492
21
29.261852
0
LINE
8
Layer 1
10
102.531492
20
29.261852
11
102.865510
21
29.299787
0
LINE
8
Layer 1
10
102.865510
20
29.299787
11
102.865510
21
29.299858
0
LINE
8
Layer 1
10
125.983283
20
39.687810
11
126.022485
21
40.057813
0
LINE
8
Layer 1
10
126.022485
20
40.057813
11
126.116736
21
40.018539
0
LINE
8
Layer 1
10
126.116736
20
40.018539
11
126.116736
21
39.357081
0
LINE
8
Layer 1
10
126.116736
20
39.357081
11
126.022485
21
39.317807
0
LINE
8
Layer 1
10
126.022485
20
39.317807
11
125.983283
21
39.687810
0
LINE
8
Layer 1
10
125.983283
20
39.687810
11
125.983283
21
39.687810
0
LINE
8
Layer 1
10
180.761769
20
117.872086
11
180.804524
21
118.295181
0
LINE
8
Layer 1
10
180.804524
20
118.295181
11
180.893542
21
118.197780
0
LINE
8
Layer 1
10
180.893542
20
118.197780
11
180.883726
21
117.404031
0
LINE
8
Layer 1
10
180.883726
20
117.404031
11
180.793540
21
117.407174
0
LINE
8
Layer 1
10
180.793540
20
117.407174
11
180.761756
21
117.872086
0
LINE
8
Layer 1
10
180.761756
20
117.872086
11
180.761769
21
117.872086
0
LINE
8
Layer 1
10
106.980487
20
128.058532
11
107.010974
21
129.168540
0
LINE
8
Layer 1
10
107.010974
20
129.168540
11
107.043974
21
129.279386
0
LINE
8
Layer 1
10
107.043974
20
129.279386
11
107.084273
21
129.050718
0
LINE
8
Layer 1
10
107.084273
20
129.050718
11
107.084273
21
127.066346
0
LINE
8
Layer 1
10
107.084273
20
127.066346
11
107.043974
21
126.837678
0
LINE
8
Layer 1
10
107.043974
20
126.837678
11
107.010974
21
126.948524
0
LINE
8
Layer 1
10
107.010974
20
126.948524
11
106.980487
21
128.058532
0
LINE
8
Layer 1
10
106.980487
20
128.058532
11
106.980487
21
128.058532
0
LINE
8
Layer 1
10
180.466495
20
137.473276
11
180.519510
21
137.747937
0
LINE
8
Layer 1
10
180.519510
20
137.747937
11
180.626345
21
137.633129
0
LINE
8
Layer 1
10
180.626345
20
137.633129
11
180.605470
21
137.126011
0
LINE
8
Layer 1
10
180.605470
20
137.126011
11
180.498710
21
137.162082
0
LINE
8
Layer 1
10
180.498710
20
137.162082
11
180.466505
21
137.473276
0
LINE
8
Layer 1
10
180.466505
20
137.473276
11
180.466495
21
137.473276
0
LINE
8
Layer 1
10
102.658204
20
236.108292
11
103.121224
21
236.571312
0
LINE
8
Layer 1
10
103.121224
20
236.571312
11
103.451954
21
236.802146
0
LINE
8
Layer 1
10
103.451954
20
236.802146
11
103.221120
21
236.471416
0
LINE
8
Layer 1
10
103.221120
20
236.471416
11
102.810046
21
236.042920
0
LINE
8
Layer 1
10
102.810046
20
236.042920
11
102.697554
21
236.011184
0
LINE
8
Layer 1
10
102.697554
20
236.011184
11
102.658204
21
236.108292
0
LINE
8
Layer 1
10
102.658204
20
236.108292
11
102.658204
21
236.108292
0
LINE
8
Layer 1
10
181.318640
20
91.810661
11
181.351018
21
92.624667
0
LINE
8
Layer 1
10
181.351018
20
92.624667
11
181.386066
21
92.705954
0
LINE
8
Layer 1
10
181.386066
20
92.705954
11
181.428863
21
92.538264
0
LINE
8
Layer 1
10
181.428863
20
92.538264
11
181.428863
21
91.083058
0
LINE
8
Layer 1
10
181.428863
20
91.083058
11
181.386066
21
90.915368
0
LINE
8
Layer 1
10
181.386066
20
90.915368
11
181.351018
21
90.996655
0
LINE
8
Layer 1
10
181.351018
20
90.996655
11
181.318640
21
91.810661
0
LINE
8
Layer 1
10
181.318640
20
91.810661
11
181.318640
21
91.810661
0
LINE
8
Layer 1
10
180.731078
20
116.835802
11
180.784093
21
117.110463
0
LINE
8
Layer 1
10
180.784093
20
117.110463
11
180.890928
21
116.995655
0
LINE
8
Layer 1
10
180.890928
20
116.995655
11
180.870053
21
116.488537
0
LINE
8
Layer 1
10
180.870053
20
116.488537
11
180.763293
21
116.524608
0
LINE
8
Layer 1
10
180.763293
20
116.524608
11
180.731088
21
116.835802
0
LINE
8
Layer 1
10
180.731088
20
116.835802
11
180.731078
21
116.835802
0
LINE
8
Layer 1
10
180.466495
20
138.267025
11
180.519510
21
138.541686
0
LINE
8
Layer 1
10
180.519510
20
138.541686
11
180.626345
21
138.426878
0
LINE
8
Layer 1
10
180.626345
20
138.426878
11
180.605470
21
137.919760
0
LINE
8
Layer 1
10
180.605470
20
137.919760
11
180.498710
21
137.955831
0
LINE
8
Layer 1
10
180.498710
20
137.955831
11
180.466505
21
138.267025
0
LINE
8
Layer 1
10
180.466505
20
138.267025
11
180.466495
21
138.267025
0
LINE
8
Layer 1
10
98.181182
20
192.771123
11
98.234197
21
193.045784
0
LINE
8
Layer 1
10
98.234197
20
193.045784
11
98.341032
21
192.930976
0
LINE
8
Layer 1
10
98.341032
20
192.930976
11
98.320157
21
192.423858
0
LINE
8
Layer 1
10
98.320157
20
192.423858
11
98.213397
21
192.459929
0
LINE
8
Layer 1
10
98.213397
20
192.459929
11
98.181192
21
192.771123
0
LINE
8
Layer 1
10
98.181192
20
192.771123
11
98.181182
21
192.771123
0
LINE
8
Layer 1
10
190.367469
20
13.229510
11
190.978650
21
13.758676
0
LINE
8
Layer 1
10
190.978650
20
13.758676
11
190.632052
21
13.229510
0
LINE
8
Layer 1
10
190.632052
20
13.229510
11
190.020870
21
12.700344
0
LINE
8
Layer 1
10
190.020870
20
12.700344
11
190.367469
21
13.229510
0
LINE
8
Layer 1
10
190.367469
20
13.229510
11
190.367469
21
13.229510
0
LINE
8
Layer 1
10
103.650390
20
43.567200
11
104.311848
21
43.567200
0
LINE
8
Layer 1
10
104.311848
20
43.567200
11
104.351122
21
43.472949
0
LINE
8
Layer 1
10
104.351122
20
43.472949
11
103.981119
21
43.433747
0
LINE
8
Layer 1
10
103.981119
20
43.433747
11
103.611116
21
43.472949
0
LINE
8
Layer 1
10
103.611116
20
43.472949
11
103.650390
21
43.567200
0
LINE
8
Layer 1
10
103.650390
20
43.567200
11
103.650390
21
43.567200
0
LINE
8
Layer 1
10
180.789474
20
115.093965
11
180.821852
21
115.907971
0
LINE
8
Layer 1
10
180.821852
20
115.907971
11
180.856900
21
115.989258
0
LINE
8
Layer 1
10
180.856900
20
115.989258
11
180.899697
21
115.821568
0
LINE
8
Layer 1
10
180.899697
20
115.821568
11
180.899697
21
114.366362
0
LINE
8
Layer 1
10
180.899697
20
114.366362
11
180.856900
21
114.198672
0
LINE
8
Layer 1
10
180.856900
20
114.198672
11
180.821852
21
114.279959
0
LINE
8
Layer 1
10
180.821852
20
114.279959
11
180.789474
21
115.093965
0
LINE
8
Layer 1
10
180.789474
20
115.093965
11
180.789474
21
115.093965
0
LINE
8
Layer 1
10
180.273471
20
127.000200
11
180.303223
21
128.258209
0
LINE
8
Layer 1
10
180.303223
20
128.258209
11
180.335427
21
128.383835
0
LINE
8
Layer 1
10
180.335427
20
128.383835
11
180.374753
21
128.124678
0
LINE
8
Layer 1
10
180.374753
20
128.124678
11
180.374753
21
125.875722
0
LINE
8
Layer 1
10
180.374753
20
125.875722
11
180.335427
21
125.616565
0
LINE
8
Layer 1
10
180.335427
20
125.616565
11
180.303223
21
125.742191
0
LINE
8
Layer 1
10
180.303223
20
125.742191
11
180.273471
21
127.000200
0
LINE
8
Layer 1
10
180.273471
20
127.000200
11
180.273471
21
127.000200
0
LINE
8
Layer 1
10
182.053993
20
204.677358
11
182.107008
21
204.952019
0
LINE
8
Layer 1
10
182.107008
20
204.952019
11
182.213843
21
204.837211
0
LINE
8
Layer 1
10
182.213843
20
204.837211
11
182.192968
21
204.330093
0
LINE
8
Layer 1
10
182.192968
20
204.330093
11
182.086208
21
204.366164
0
LINE
8
Layer 1
10
182.086208
20
204.366164
11
182.054003
21
204.677358
0
LINE
8
Layer 1
10
182.054003
20
204.677358
11
182.053993
21
204.677358
0
LINE
8
Layer 1
10
91.356808
20
211.799051
11
91.391890
21
212.518558
0
LINE
8
Layer 1
10
91.391890
20
212.518558
11
91.427794
21
212.570266
0
LINE
8
Layer 1
10
91.427794
20
212.570266
11
91.470994
21
212.390725
0
LINE
8
Layer 1
10
91.470994
20
212.390725
11
91.467396
21
211.067810
0
LINE
8
Layer 1
10
91.467396
20
211.067810
11
91.423345
21
210.942462
0
LINE
8
Layer 1
10
91.423345
20
210.942462
11
91.387814
21
211.038552
0
LINE
8
Layer 1
10
91.387814
20
211.038552
11
91.356822
21
211.799051
0
LINE
8
Layer 1
10
91.356822
20
211.799051
11
91.356808
21
211.799051
0
LINE
8
Layer 1
10
182.099827
20
212.857383
11
182.137399
21
213.429051
0
LINE
8
Layer 1
10
182.137399
20
213.429051
11
182.220233
21
213.317319
0
LINE
8
Layer 1
10
182.220233
20
213.317319
11
182.214888
21
212.258987
0
LINE
8
Layer 1
10
182.214888
20
212.258987
11
182.168559
21
212.163913
0
LINE
8
Layer 1
10
182.168559
20
212.163913
11
182.131420
21
212.245046
0
LINE
8
Layer 1
10
182.131420
20
212.245046
11
182.099821
21
212.857383
0
LINE
8
Layer 1
10
182.099821
20
212.857383
11
182.099827
21
212.857383
0
LINE
8
Layer 1
10
171.945200
20
237.265165
11
171.714366
21
237.595895
0
LINE
8
Layer 1
10
171.714366
20
237.595895
11
172.045096
21
237.365061
0
LINE
8
Layer 1
10
172.045096
20
237.365061
11
172.508116
21
236.902041
0
LINE
8
Layer 1
10
172.508116
20
236.902041
11
172.468766
21
236.804933
0
LINE
8
Layer 1
10
172.468766
20
236.804933
11
172.356274
21
236.836669
0
LINE
8
Layer 1
10
172.356274
20
236.836669
11
171.945200
21
237.265165
0
LINE
8
Layer 1
10
171.945200
20
237.265165
11
171.945200
21
237.265165
0
LINE
8
Layer 1
10
104.113411
20
237.595894
11
104.724592
21
238.125060
0
LINE
8
Layer 1
10
104.724592
20
238.125060
11
104.377994
21
237.595894
0
LINE
8
Layer 1
10
104.377994
20
237.595894
11
103.766812
21
237.066728
0
LINE
8
Layer 1
10
103.766812
20
237.066728
11
104.113411
21
237.595894
0
LINE
8
Layer 1
10
104.113411
20
237.595894
11
104.113411
21
237.595894
0
LINE
8
Layer 1
10
131.448142
20
249.153702
11
131.955260
21
249.132827
0
LINE
8
Layer 1
10
131.955260
20
249.132827
11
131.919189
21
249.026067
0
LINE
8
Layer 1
10
131.919189
20
249.026067
11
131.607995
21
248.993862
0
LINE
8
Layer 1
10
131.607995
20
248.993862
11
131.333334
21
249.046878
0
LINE
8
Layer 1
10
131.333334
20
249.046878
11
131.448142
21
249.153713
0
LINE
8
Layer 1
10
131.448142
20
249.153713
11
131.448142
21
249.153702
0
LINE
8
Layer 1
10
195.304029
20
24.077413
11
195.343231
21
24.447416
0
LINE
8
Layer 1
10
195.343231
20
24.447416
11
195.437482
21
24.408142
0
LINE
8
Layer 1
10
195.437482
20
24.408142
11
195.437482
21
23.746684
0
LINE
8
Layer 1
10
195.437482
20
23.746684
11
195.343231
21
23.707410
0
LINE
8
Layer 1
10
195.343231
20
23.707410
11
195.304029
21
24.077413
0
LINE
8
Layer 1
10
195.304029
20
24.077413
11
195.304029
21
24.077413
0
LINE
8
Layer 1
10
169.354009
20
24.760918
11
169.407024
21
25.035579
0
LINE
8
Layer 1
10
169.407024
20
25.035579
11
169.513859
21
24.920771
0
LINE
8
Layer 1
10
169.513859
20
24.920771
11
169.492984
21
24.413653
0
LINE
8
Layer 1
10
169.492984
20
24.413653
11
169.386224
21
24.449724
0
LINE
8
Layer 1
10
169.386224
20
24.449724
11
169.354019
21
24.760918
0
LINE
8
Layer 1
10
169.354019
20
24.760918
11
169.354009
21
24.760918
0
LINE
8
Layer 1
10
169.944272
20
31.618028
11
169.977668
21
32.485213
0
LINE
8
Layer 1
10
169.977668
20
32.485213
11
170.012267
21
32.551350
0
LINE
8
Layer 1
10
170.012267
20
32.551350
11
170.054037
21
32.340893
0
LINE
8
Layer 1
10
170.054037
20
32.340893
11
170.051338
21
30.753395
0
LINE
8
Layer 1
10
170.051338
20
30.753395
11
170.008931
21
30.597983
0
LINE
8
Layer 1
10
170.008931
20
30.597983
11
169.974609
21
30.709198
0
LINE
8
Layer 1
10
169.974609
20
30.709198
11
169.944272
21
31.618028
0
LINE
8
Layer 1
10
169.944272
20
31.618028
11
169.944272
21
31.618028
0
LINE
8
Layer 1
10
105.060340
20
43.810894
11
105.113355
21
44.085555
0
LINE
8
Layer 1
10
105.113355
20
44.085555
11
105.220190
21
43.970747
0
LINE
8
Layer 1
10
105.220190
20
43.970747
11
105.199315
21
43.463629
0
LINE
8
Layer 1
10
105.199315
20
43.463629
11
105.092555
21
43.499700
0
LINE
8
Layer 1
10
105.092555
20
43.499700
11
105.060350
21
43.810894
0
LINE
8
Layer 1
10
105.060350
20
43.810894
11
105.060340
21
43.810894
0
LINE
8
Layer 1
10
154.218139
20
71.636207
11
153.987305
21
71.966937
0
LINE
8
Layer 1
10
153.987305
20
71.966937
11
154.318035
21
71.736103
0
LINE
8
Layer 1
10
154.318035
20
71.736103
11
154.781055
21
71.273083
0
LINE
8
Layer 1
10
154.781055
20
71.273083
11
154.741705
21
71.175975
0
LINE
8
Layer 1
10
154.741705
20
71.175975
11
154.629213
21
71.207711
0
LINE
8
Layer 1
10
154.629213
20
71.207711
11
154.218139
21
71.636207
0
LINE
8
Layer 1
10
154.218139
20
71.636207
11
154.218139
21
71.636207
0
LINE
8
Layer 1
10
146.264790
20
73.206007
11
146.771908
21
73.185132
0
LINE
8
Layer 1
10
146.771908
20
73.185132
11
146.735837
21
73.078372
0
LINE
8
Layer 1
10
146.735837
20
73.078372
11
146.424643
21
73.046167
0
LINE
8
Layer 1
10
146.424643
20
73.046167
11
146.149982
21
73.099183
0
LINE
8
Layer 1
10
146.149982
20
73.099183
11
146.264790
21
73.206018
0
LINE
8
Layer 1
10
146.264790
20
73.206018
11
146.264790
21
73.206007
0
LINE
8
Layer 1
10
180.731078
20
113.396223
11
180.784093
21
113.670884
0
LINE
8
Layer 1
10
180.784093
20
113.670884
11
180.890928
21
113.556076
0
LINE
8
Layer 1
10
180.890928
20
113.556076
11
180.870053
21
113.048958
0
LINE
8
Layer 1
10
180.870053
20
113.048958
11
180.763293
21
113.085029
0
LINE
8
Layer 1
10
180.763293
20
113.085029
11
180.731088
21
113.396223
0
LINE
8
Layer 1
10
180.731088
20
113.396223
11
180.731078
21
113.396223
0
LINE
8
Layer 1
10
180.222798
20
124.354370
11
180.262000
21
124.724373
0
LINE
8
Layer 1
10
180.262000
20
124.724373
11
180.356251
21
124.685099
0
LINE
8
Layer 1
10
180.356251
20
124.685099
11
180.356251
21
124.023641
0
LINE
8
Layer 1
10
180.356251
20
124.023641
11
180.262000
21
123.984367
0
LINE
8
Layer 1
10
180.262000
20
123.984367
11
180.222798
21
124.354370
0
LINE
8
Layer 1
10
180.222798
20
124.354370
11
180.222798
21
124.354370
0
LINE
8
Layer 1
10
180.201922
20
129.535786
11
180.254938
21
129.810447
0
LINE
8
Layer 1
10
180.254938
20
129.810447
11
180.361773
21
129.695639
0
LINE
8
Layer 1
10
180.361773
20
129.695639
11
180.340897
21
129.188521
0
LINE
8
Layer 1
10
180.340897
20
129.188521
11
180.234138
21
129.224592
0
LINE
8
Layer 1
10
180.234138
20
129.224592
11
180.201933
21
129.535786
0
LINE
8
Layer 1
10
180.201933
20
129.535786
11
180.201922
21
129.535786
0
LINE
8
Layer 1
10
169.139718
20
178.248072
11
169.933467
21
178.238256
0
LINE
8
Layer 1
10
169.933467
20
178.238256
11
169.930324
21
178.148070
0
LINE
8
Layer 1
10
169.930324
20
178.148070
11
169.465412
21
178.116286
0
LINE
8
Layer 1
10
169.465412
20
178.116286
11
169.042317
21
178.159041
0
LINE
8
Layer 1
10
169.042317
20
178.159041
11
169.139718
21
178.248059
0
LINE
8
Layer 1
10
169.139718
20
178.248059
11
169.139718
21
178.248072
0
LINE
8
Layer 1
10
172.738949
20
236.471416
11
172.508115
21
236.802146
0
LINE
8
Layer 1
10
172.508115
20
236.802146
11
172.838845
21
236.571312
0
LINE
8
Layer 1
10
172.838845
20
236.571312
11
173.267341
21
236.160238
0
LINE
8
Layer 1
10
173.267341
20
236.160238
11
173.299077
21
236.047746
0
LINE
8
Layer 1
10
173.299077
20
236.047746
11
173.201969
21
236.008396
0
LINE
8
Layer 1
10
173.201969
20
236.008396
11
172.738949
21
236.471416
0
LINE
8
Layer 1
10
172.738949
20
236.471416
11
172.738949
21
236.471416
0
LINE
8
Layer 1
10
137.924893
20
249.433999
11
141.364472
21
249.433205
0
LINE
8
Layer 1
10
141.364472
20
249.433205
11
141.730873
21
249.396908
0
LINE
8
Layer 1
10
141.730873
20
249.396908
11
141.514209
21
249.367310
0
LINE
8
Layer 1
10
141.514209
20
249.367310
11
139.567532
21
249.340395
0
LINE
8
Layer 1
10
139.567532
20
249.340395
11
137.666180
21
249.368277
0
LINE
8
Layer 1
10
137.666180
20
249.368277
11
137.498579
21
249.397953
0
LINE
8
Layer 1
10
137.498579
20
249.397953
11
137.924893
21
249.434047
0
LINE
8
Layer 1
10
137.924893
20
249.434047
11
137.924893
21
249.433999
0
LINE
8
Layer 1
10
169.408793
20
23.151372
11
169.443875
21
23.870879
0
LINE
8
Layer 1
10
169.443875
20
23.870879
11
169.479779
21
23.922587
0
LINE
8
Layer 1
10
169.479779
20
23.922587
11
169.522979
21
23.743046
0
LINE
8
Layer 1
10
169.522979
20
23.743046
11
169.519381
21
22.420131
0
LINE
8
Layer 1
10
169.519381
20
22.420131
11
169.475330
21
22.294780
0
LINE
8
Layer 1
10
169.475330
20
22.294780
11
169.439799
21
22.390863
0
LINE
8
Layer 1
10
169.439799
20
22.390863
11
169.408807
21
23.151372
0
LINE
8
Layer 1
10
169.408807
20
23.151372
11
169.408793
21
23.151372
0
LINE
8
Layer 1
10
169.883175
20
29.787995
11
169.936190
21
30.062656
0
LINE
8
Layer 1
10
169.936190
20
30.062656
11
170.043025
21
29.947848
0
LINE
8
Layer 1
10
170.043025
20
29.947848
11
170.022150
21
29.440730
0
LINE
8
Layer 1
10
170.022150
20
29.440730
11
169.915390
21
29.476801
0
LINE
8
Layer 1
10
169.915390
20
29.476801
11
169.883185
21
29.787995
0
LINE
8
Layer 1
10
169.883185
20
29.787995
11
169.883175
21
29.787995
0
LINE
8
Layer 1
10
169.904061
20
33.602401
11
169.943263
21
33.972404
0
LINE
8
Layer 1
10
169.943263
20
33.972404
11
170.037514
21
33.933130
0
LINE
8
Layer 1
10
170.037514
20
33.933130
11
170.037514
21
33.271672
0
LINE
8
Layer 1
10
170.037514
20
33.271672
11
169.943263
21
33.232398
0
LINE
8
Layer 1
10
169.943263
20
33.232398
11
169.904061
21
33.602401
0
LINE
8
Layer 1
10
169.904061
20
33.602401
11
169.904061
21
33.602401
0
LINE
8
Layer 1
10
155.152791
20
70.710167
11
154.648764
21
71.305478
0
LINE
8
Layer 1
10
154.648764
20
71.305478
11
155.244075
21
70.801451
0
LINE
8
Layer 1
10
155.244075
20
70.801451
11
155.785281
21
70.280530
0
LINE
8
Layer 1
10
155.785281
20
70.280530
11
155.837345
21
70.155527
0
LINE
8
Layer 1
10
155.837345
20
70.155527
11
155.748103
21
70.114855
0
LINE
8
Layer 1
10
155.748103
20
70.114855
11
155.152791
21
70.710167
0
LINE
8
Layer 1
10
155.152791
20
70.710167
11
155.152791
21
70.710167
0
LINE
8
Layer 1
10
112.712358
20
71.702353
11
112.238204
21
71.886201
0
LINE
8
Layer 1
10
112.238204
20
71.886201
11
112.630597
21
71.940562
0
LINE
8
Layer 1
10
112.630597
20
71.940562
11
113.088042
21
71.881465
0
LINE
8
Layer 1
10
113.088042
20
71.881465
11
113.373816
21
71.702353
0
LINE
8
Layer 1
10
113.373816
20
71.702353
11
113.455577
21
71.464144
0
LINE
8
Layer 1
10
113.455577
20
71.464144
11
112.712358
21
71.702353
0
LINE
8
Layer 1
10
112.712358
20
71.702353
11
112.712358
21
71.702353
0
LINE
8
Layer 1
10
147.571168
20
73.216667
11
149.290958
21
73.216667
0
LINE
8
Layer 1
10
149.290958
20
73.216667
11
149.489137
21
73.175232
0
LINE
8
Layer 1
10
149.489137
20
73.175232
11
149.393070
21
73.141301
0
LINE
8
Layer 1
10
149.393070
20
73.141301
11
148.431063
21
73.109953
0
LINE
8
Layer 1
10
148.431063
20
73.109953
11
147.469056
21
73.141301
0
LINE
8
Layer 1
10
147.469056
20
73.141301
11
147.372989
21
73.175232
0
LINE
8
Layer 1
10
147.372989
20
73.175232
11
147.571168
21
73.216667
0
LINE
8
Layer 1
10
147.571168
20
73.216667
11
147.571168
21
73.216667
0
LINE
8
Layer 1
10
110.066528
20
96.673051
11
110.529548
21
97.136071
0
LINE
8
Layer 1
10
110.529548
20
97.136071
11
110.860278
21
97.366905
0
LINE
8
Layer 1
10
110.860278
20
97.366905
11
110.629444
21
97.036175
0
LINE
8
Layer 1
10
110.629444
20
97.036175
11
110.218370
21
96.607679
0
LINE
8
Layer 1
10
110.218370
20
96.607679
11
110.105878
21
96.575943
0
LINE
8
Layer 1
10
110.105878
20
96.575943
11
110.066528
21
96.673051
0
LINE
8
Layer 1
10
110.066528
20
96.673051
11
110.066528
21
96.673051
0
LINE
8
Layer 1
10
181.016547
20
102.129398
11
181.055749
21
102.499401
0
LINE
8
Layer 1
10
181.055749
20
102.499401
11
181.150000
21
102.460127
0
LINE
8
Layer 1
10
181.150000
20
102.460127
11
181.150000
21
101.798669
0
LINE
8
Layer 1
10
181.150000
20
101.798669
11
181.055749
21
101.759395
0
LINE
8
Layer 1
10
181.055749
20
101.759395
11
181.016547
21
102.129398
0
LINE
8
Layer 1
10
181.016547
20
102.129398
11
181.016547
21
102.129398
0
LINE
8
Layer 1
10
180.731078
20
112.602474
11
180.784093
21
112.877135
0
LINE
8
Layer 1
10
180.784093
20
112.877135
11
180.890928
21
112.762327
0
LINE
8
Layer 1
10
180.890928
20
112.762327
11
180.870053
21
112.255209
0
LINE
8
Layer 1
10
180.870053
20
112.255209
11
180.763293
21
112.291280
0
LINE
8
Layer 1
10
180.763293
20
112.291280
11
180.731088
21
112.602474
0
LINE
8
Layer 1
10
180.731088
20
112.602474
11
180.731078
21
112.602474
0
LINE
8
Layer 1
10
180.253085
20
130.968945
11
180.286767
21
131.634950
0
LINE
8
Layer 1
10
180.286767
20
131.634950
11
180.323226
21
131.701458
0
LINE
8
Layer 1
10
180.323226
20
131.701458
11
180.367747
21
131.564257
0
LINE
8
Layer 1
10
180.367747
20
131.564257
11
180.367747
21
130.373633
0
LINE
8
Layer 1
10
180.367747
20
130.373633
11
180.323226
21
130.236432
0
LINE
8
Layer 1
10
180.323226
20
130.236432
11
180.286767
21
130.302940
0
LINE
8
Layer 1
10
180.286767
20
130.302940
11
180.253085
21
130.968945
0
LINE
8
Layer 1
10
180.253085
20
130.968945
11
180.253085
21
130.968945
0
LINE
8
Layer 1
10
229.057761
20
150.833879
11
229.207848
21
151.182125
0
LINE
8
Layer 1
10
229.207848
20
151.182125
11
229.337306
21
151.113424
0
LINE
8
Layer 1
10
229.337306
20
151.113424
11
229.336893
21
150.786199
0
LINE
8
Layer 1
10
229.336893
20
150.786199
11
229.173447
21
150.486823
0
LINE
8
Layer 1
10
229.173447
20
150.486823
11
228.998820
21
150.421688
0
LINE
8
Layer 1
10
228.998820
20
150.421688
11
229.057761
21
150.833879
0
LINE
8
Layer 1
10
229.057761
20
150.833879
11
229.057761
21
150.833879
0
LINE
8
Layer 1
10
170.341843
20
178.245458
11
170.848961
21
178.224583
0
LINE
8
Layer 1
10
170.848961
20
178.224583
11
170.812890
21
178.117823
0
LINE
8
Layer 1
10
170.812890
20
178.117823
11
170.501696
21
178.085618
0
LINE
8
Layer 1
10
170.501696
20
178.085618
11
170.227035
21
178.138634
0
LINE
8
Layer 1
10
170.227035
20
178.138634
11
170.341843
21
178.245469
0
LINE
8
Layer 1
10
170.341843
20
178.245469
11
170.341843
21
178.245458
0
LINE
8
Layer 1
10
98.232355
20
190.764703
11
98.266037
21
191.430708
0
LINE
8
Layer 1
10
98.266037
20
191.430708
11
98.302496
21
191.497216
0
LINE
8
Layer 1
10
98.302496
20
191.497216
11
98.347017
21
191.360015
0
LINE
8
Layer 1
10
98.347017
20
191.360015
11
98.347017
21
190.169391
0
LINE
8
Layer 1
10
98.347017
20
190.169391
11
98.302496
21
190.032190
0
LINE
8
Layer 1
10
98.302496
20
190.032190
11
98.266037
21
190.098698
0
LINE
8
Layer 1
10
98.266037
20
190.098698
11
98.232355
21
190.764703
0
LINE
8
Layer 1
10
98.232355
20
190.764703
11
98.232355
21
190.764703
0
LINE
8
Layer 1
10
174.137389
20
199.495942
11
174.176591
21
199.865945
0
LINE
8
Layer 1
10
174.176591
20
199.865945
11
174.270842
21
199.826671
0
LINE
8
Layer 1
10
174.270842
20
199.826671
11
174.270842
21
199.165213
0
LINE
8
Layer 1
10
174.270842
20
199.165213
11
174.176591
21
199.125939
0
LINE
8
Layer 1
10
174.176591
20
199.125939
11
174.137389
21
199.495942
0
LINE
8
Layer 1
10
174.137389
20
199.495942
11
174.137389
21
199.495942
0
LINE
8
Layer 1
10
182.053993
20
211.291933
11
182.107008
21
211.566594
0
LINE
8
Layer 1
10
182.107008
20
211.566594
11
182.213843
21
211.451786
0
LINE
8
Layer 1
10
182.213843
20
211.451786
11
182.192968
21
210.944668
0
LINE
8
Layer 1
10
182.192968
20
210.944668
11
182.086208
21
210.980739
0
LINE
8
Layer 1
10
182.086208
20
210.980739
11
182.054003
21
211.291933
0
LINE
8
Layer 1
10
182.054003
20
211.291933
11
182.053993
21
211.291933
0
LINE
8
Layer 1
10
132.771057
20
249.153702
11
133.278175
21
249.132827
0
LINE
8
Layer 1
10
133.278175
20
249.132827
11
133.242104
21
249.026067
0
LINE
8
Layer 1
10
133.242104
20
249.026067
11
132.930910
21
248.993862
0
LINE
8
Layer 1
10
132.930910
20
248.993862
11
132.656249
21
249.046878
0
LINE
8
Layer 1
10
132.656249
20
249.046878
11
132.771057
21
249.153713
0
LINE
8
Layer 1
10
132.771057
20
249.153713
11
132.771057
21
249.153702
0
LINE
8
Layer 1
10
169.618592
20
26.612999
11
169.671607
21
26.887660
0
LINE
8
Layer 1
10
169.671607
20
26.887660
11
169.778442
21
26.772852
0
LINE
8
Layer 1
10
169.778442
20
26.772852
11
169.757567
21
26.265734
0
LINE
8
Layer 1
10
169.757567
20
26.265734
11
169.650807
21
26.301805
0
LINE
8
Layer 1
10
169.650807
20
26.301805
11
169.618602
21
26.612999
0
LINE
8
Layer 1
10
169.618602
20
26.612999
11
169.618592
21
26.612999
0
LINE
8
Layer 1
10
169.883175
20
28.994246
11
169.936190
21
29.268907
0
LINE
8
Layer 1
10
169.936190
20
29.268907
11
170.043025
21
29.154099
0
LINE
8
Layer 1
10
170.043025
20
29.154099
11
170.022150
21
28.646981
0
LINE
8
Layer 1
10
170.022150
20
28.646981
11
169.915390
21
28.683052
0
LINE
8
Layer 1
10
169.915390
20
28.683052
11
169.883185
21
28.994246
0
LINE
8
Layer 1
10
169.883185
20
28.994246
11
169.883175
21
28.994246
0
LINE
8
Layer 1
10
100.227348
20
29.549812
11
100.734466
21
29.528937
0
LINE
8
Layer 1
10
100.734466
20
29.528937
11
100.698395
21
29.422177
0
LINE
8
Layer 1
10
100.698395
20
29.422177
11
100.387201
21
29.389972
0
LINE
8
Layer 1
10
100.387201
20
29.389972
11
100.112540
21
29.442988
0
LINE
8
Layer 1
10
100.112540
20
29.442988
11
100.227348
21
29.549823
0
LINE
8
Layer 1
10
100.227348
20
29.549823
11
100.227348
21
29.549812
0
LINE
8
Layer 1
10
106.841923
20
29.549812
11
107.349041
21
29.528937
0
LINE
8
Layer 1
10
107.349041
20
29.528937
11
107.312970
21
29.422177
0
LINE
8
Layer 1
10
107.312970
20
29.422177
11
107.001776
21
29.389972
0
LINE
8
Layer 1
10
107.001776
20
29.389972
11
106.727115
21
29.442988
0
LINE
8
Layer 1
10
106.727115
20
29.442988
11
106.841923
21
29.549823
0
LINE
8
Layer 1
10
106.841923
20
29.549823
11
106.841923
21
29.549812
0
LINE
8
Layer 1
10
115.837745
20
30.608144
11
116.344863
21
30.587269
0
LINE
8
Layer 1
10
116.344863
20
30.587269
11
116.308792
21
30.480509
0
LINE
8
Layer 1
10
116.308792
20
30.480509
11
115.997598
21
30.448304
0
LINE
8
Layer 1
10
115.997598
20
30.448304
11
115.722937
21
30.501320
0
LINE
8
Layer 1
10
115.722937
20
30.501320
11
115.837745
21
30.608155
0
LINE
8
Layer 1
10
115.837745
20
30.608155
11
115.837745
21
30.608144
0
LINE
8
Layer 1
10
169.883175
20
34.550489
11
169.936190
21
34.825150
0
LINE
8
Layer 1
10
169.936190
20
34.825150
11
170.043025
21
34.710342
0
LINE
8
Layer 1
10
170.043025
20
34.710342
11
170.022150
21
34.203224
0
LINE
8
Layer 1
10
170.022150
20
34.203224
11
169.915390
21
34.239295
0
LINE
8
Layer 1
10
169.915390
20
34.239295
11
169.883185
21
34.550489
0
LINE
8
Layer 1
10
169.883185
20
34.550489
11
169.883175
21
34.550489
0
LINE
8
Layer 1
10
89.449943
20
36.667153
11
89.502958
21
36.941814
0
LINE
8
Layer 1
10
89.502958
20
36.941814
11
89.609793
21
36.827006
0
LINE
8
Layer 1
10
89.609793
20
36.827006
11
89.588918
21
36.319888
0
LINE
8
Layer 1
10
89.588918
20
36.319888
11
89.482158
21
36.355959
0
LINE
8
Layer 1
10
89.482158
20
36.355959
11
89.449953
21
36.667153
0
LINE
8
Layer 1
10
89.449953
20
36.667153
11
89.449943
21
36.667153
0
LINE
8
Layer 1
10
184.170657
20
55.717129
11
184.223672
21
55.991790
0
LINE
8
Layer 1
10
184.223672
20
55.991790
11
184.330507
21
55.876982
0
LINE
8
Layer 1
10
184.330507
20
55.876982
11
184.309632
21
55.369864
0
LINE
8
Layer 1
10
184.309632
20
55.369864
11
184.202872
21
55.405935
0
LINE
8
Layer 1
10
184.202872
20
55.405935
11
184.170667
21
55.717129
0
LINE
8
Layer 1
10
184.170667
20
55.717129
11
184.170657
21
55.717129
0
LINE
8
Layer 1
10
181.260244
20
68.681696
11
181.313259
21
68.956357
0
LINE
8
Layer 1
10
181.313259
20
68.956357
11
181.420094
21
68.841549
0
LINE
8
Layer 1
10
181.420094
20
68.841549
11
181.399219
21
68.334431
0
LINE
8
Layer 1
10
181.399219
20
68.334431
11
181.292459
21
68.370502
0
LINE
8
Layer 1
10
181.292459
20
68.370502
11
181.260254
21
68.681696
0
LINE
8
Layer 1
10
181.260254
20
68.681696
11
181.260244
21
68.681696
0
LINE
8
Layer 1
10
180.995661
20
70.533777
11
181.048676
21
70.808438
0
LINE
8
Layer 1
10
181.048676
20
70.808438
11
181.155511
21
70.693630
0
LINE
8
Layer 1
10
181.155511
20
70.693630
11
181.134636
21
70.186512
0
LINE
8
Layer 1
10
181.134636
20
70.186512
11
181.027876
21
70.222583
0
LINE
8
Layer 1
10
181.027876
20
70.222583
11
180.995671
21
70.533777
0
LINE
8
Layer 1
10
180.995671
20
70.533777
11
180.995661
21
70.533777
0
LINE
8
Layer 1
10
113.375689
20
71.699324
11
113.377119
21
71.841441
0
LINE
8
Layer 1
10
113.377119
20
71.841441
11
113.624656
21
71.803307
0
LINE
8
Layer 1
10
113.624656
20
71.803307
11
114.020088
21
71.554579
0
LINE
8
Layer 1
10
114.020088
20
71.554579
11
113.786306
21
71.437770
0
LINE
8
Layer 1
10
113.786306
20
71.437770
11
113.375689
21
71.699324
0
LINE
8
Layer 1
10
113.375689
20
71.699324
11
113.375689
21
71.699324
0
LINE
8
Layer 1
10
144.131589
20
73.465079
11
144.793047
21
73.465079
0
LINE
8
Layer 1
10
144.793047
20
73.465079
11
144.832321
21
73.370828
0
LINE
8
Layer 1
10
144.832321
20
73.370828
11
144.462318
21
73.331626
0
LINE
8
Layer 1
10
144.462318
20
73.331626
11
144.092315
21
73.370828
0
LINE
8
Layer 1
10
144.092315
20
73.370828
11
144.131589
21
73.465079
0
LINE
8
Layer 1
10
144.131589
20
73.465079
11
144.131589
21
73.465079
0
LINE
8
Layer 1
10
151.556450
20
73.470582
11
152.063568
21
73.449707
0
LINE
8
Layer 1
10
152.063568
20
73.449707
11
152.027497
21
73.342947
0
LINE
8
Layer 1
10
152.027497
20
73.342947
11
151.716303
21
73.310742
0
LINE
8
Layer 1
10
151.716303
20
73.310742
11
151.441642
21
73.363758
0
LINE
8
Layer 1
10
151.441642
20
73.363758
11
151.556450
21
73.470593
0
LINE
8
Layer 1
10
151.556450
20
73.470593
11
151.556450
21
73.470582
0
LINE
8
Layer 1
10
142.560628
20
73.735165
11
143.067746
21
73.714290
0
LINE
8
Layer 1
10
143.067746
20
73.714290
11
143.031675
21
73.607530
0
LINE
8
Layer 1
10
143.031675
20
73.607530
11
142.720481
21
73.575325
0
LINE
8
Layer 1
10
142.720481
20
73.575325
11
142.445820
21
73.628341
0
LINE
8
Layer 1
10
142.445820
20
73.628341
11
142.560628
21
73.735176
0
LINE
8
Layer 1
10
142.560628
20
73.735176
11
142.560628
21
73.735165
0
LINE
8
Layer 1
10
180.201912
20
75.560846
11
180.254927
21
75.835507
0
LINE
8
Layer 1
10
180.254927
20
75.835507
11
180.361762
21
75.720699
0
LINE
8
Layer 1
10
180.361762
20
75.720699
11
180.340887
21
75.213581
0
LINE
8
Layer 1
10
180.340887
20
75.213581
11
180.234127
21
75.249652
0
LINE
8
Layer 1
10
180.234127
20
75.249652
11
180.201922
21
75.560846
0
LINE
8
Layer 1
10
180.201922
20
75.560846
11
180.201912
21
75.560846
0
LINE
8
Layer 1
10
135.432746
20
76.398701
11
135.201912
21
76.729431
0
LINE
8
Layer 1
10
135.201912
20
76.729431
11
135.532642
21
76.498597
0
LINE
8
Layer 1
10
135.532642
20
76.498597
11
135.995662
21
76.035577
0
LINE
8
Layer 1
10
135.995662
20
76.035577
11
135.956312
21
75.938469
0
LINE
8
Layer 1
10
135.956312
20
75.938469
11
135.843820
21
75.970205
0
LINE
8
Layer 1
10
135.843820
20
75.970205
11
135.432746
21
76.398701
0
LINE
8
Layer 1
10
135.432746
20
76.398701
11
135.432746
21
76.398701
0
LINE
8
Layer 1
10
179.937329
20
78.206684
11
179.990344
21
78.481345
0
LINE
8
Layer 1
10
179.990344
20
78.481345
11
180.097179
21
78.366537
0
LINE
8
Layer 1
10
180.097179
20
78.366537
11
180.076304
21
77.859419
0
LINE
8
Layer 1
10
180.076304
20
77.859419
11
179.969544
21
77.895490
0
LINE
8
Layer 1
10
179.969544
20
77.895490
11
179.937339
21
78.206684
0
LINE
8
Layer 1
10
179.937339
20
78.206684
11
179.937329
21
78.206684
0
LINE
8
Layer 1
10
181.079166
20
98.028361
11
181.106630
21
100.077546
0
LINE
8
Layer 1
10
181.106630
20
100.077546
11
181.135872
21
100.259745
0
LINE
8
Layer 1
10
181.135872
20
100.259745
11
181.171460
21
99.802721
0
LINE
8
Layer 1
10
181.171460
20
99.802721
11
181.170667
21
96.098559
0
LINE
8
Layer 1
10
181.170667
20
96.098559
11
181.134915
21
95.701890
0
LINE
8
Layer 1
10
181.134915
20
95.701890
11
181.105742
21
95.933515
0
LINE
8
Layer 1
10
181.105742
20
95.933515
11
181.079166
21
98.028361
0
LINE
8
Layer 1
10
181.079166
20
98.028361
11
181.079166
21
98.028361
0
LINE
8
Layer 1
10
109.272779
20
95.879302
11
109.735799
21
96.342322
0
LINE
8
Layer 1
10
109.735799
20
96.342322
11
110.066529
21
96.573156
0
LINE
8
Layer 1
10
110.066529
20
96.573156
11
109.835695
21
96.242426
0
LINE
8
Layer 1
10
109.835695
20
96.242426
11
109.424621
21
95.813930
0
LINE
8
Layer 1
10
109.424621
20
95.813930
11
109.312129
21
95.782194
0
LINE
8
Layer 1
10
109.312129
20
95.782194
11
109.272779
21
95.879302
0
LINE
8
Layer 1
10
109.272779
20
95.879302
11
109.272779
21
95.879302
0
LINE
8
Layer 1
10
114.320745
20
102.019154
11
114.373760
21
102.293815
0
LINE
8
Layer 1
10
114.373760
20
102.293815
11
114.480595
21
102.179007
0
LINE
8
Layer 1
10
114.480595
20
102.179007
11
114.459720
21
101.671889
0
LINE
8
Layer 1
10
114.459720
20
101.671889
11
114.352960
21
101.707960
0
LINE
8
Layer 1
10
114.352960
20
101.707960
11
114.320755
21
102.019154
0
LINE
8
Layer 1
10
114.320755
20
102.019154
11
114.320745
21
102.019154
0
LINE
8
Layer 1
10
180.466495
20
105.458733
11
180.519510
21
105.733394
0
LINE
8
Layer 1
10
180.519510
20
105.733394
11
180.626345
21
105.618586
0
LINE
8
Layer 1
10
180.626345
20
105.618586
11
180.605470
21
105.111468
0
LINE
8
Layer 1
10
180.605470
20
105.111468
11
180.498710
21
105.147539
0
LINE
8
Layer 1
10
180.498710
20
105.147539
11
180.466505
21
105.458733
0
LINE
8
Layer 1
10
180.466505
20
105.458733
11
180.466495
21
105.458733
0
LINE
8
Layer 1
10
180.792175
20
110.728345
11
180.825571
21
111.595530
0
LINE
8
Layer 1
10
180.825571
20
111.595530
11
180.860170
21
111.661667
0
LINE
8
Layer 1
10
180.860170
20
111.661667
11
180.901940
21
111.451210
0
LINE
8
Layer 1
10
180.901940
20
111.451210
11
180.899241
21
109.863712
0
LINE
8
Layer 1
10
180.899241
20
109.863712
11
180.856834
21
109.708300
0
LINE
8
Layer 1
10
180.856834
20
109.708300
11
180.822512
21
109.819515
0
LINE
8
Layer 1
10
180.822512
20
109.819515
11
180.792175
21
110.728345
0
LINE
8
Layer 1
10
180.792175
20
110.728345
11
180.792175
21
110.728345
0
LINE
8
Layer 1
10
180.497186
20
119.195001
11
180.539941
21
119.618096
0
LINE
8
Layer 1
10
180.539941
20
119.618096
11
180.628959
21
119.520695
0
LINE
8
Layer 1
10
180.628959
20
119.520695
11
180.619143
21
118.726946
0
LINE
8
Layer 1
10
180.619143
20
118.726946
11
180.528957
21
118.730089
0
LINE
8
Layer 1
10
180.528957
20
118.730089
11
180.497173
21
119.195001
0
LINE
8
Layer 1
10
180.497173
20
119.195001
11
180.497186
21
119.195001
0
LINE
8
Layer 1
10
180.242406
20
122.502289
11
180.277951
21
123.020293
0
LINE
8
Layer 1
10
180.277951
20
123.020293
11
180.363408
21
122.965309
0
LINE
8
Layer 1
10
180.363408
20
122.965309
11
180.363408
21
122.039269
0
LINE
8
Layer 1
10
180.363408
20
122.039269
11
180.277951
21
121.984285
0
LINE
8
Layer 1
10
180.277951
20
121.984285
11
180.242406
21
122.502289
0
LINE
8
Layer 1
10
180.242406
20
122.502289
11
180.242406
21
122.502289
0
LINE
8
Layer 1
10
107.197890
20
125.677285
11
107.237092
21
126.047288
0
LINE
8
Layer 1
10
107.237092
20
126.047288
11
107.331343
21
126.008014
0
LINE
8
Layer 1
10
107.331343
20
126.008014
11
107.331343
21
125.346556
0
LINE
8
Layer 1
10
107.331343
20
125.346556
11
107.237092
21
125.307282
0
LINE
8
Layer 1
10
107.237092
20
125.307282
11
107.197890
21
125.677285
0
LINE
8
Layer 1
10
107.197890
20
125.677285
11
107.197890
21
125.677285
0
LINE
8
Layer 1
10
107.197890
20
130.704362
11
107.237092
21
131.074365
0
LINE
8
Layer 1
10
107.237092
20
131.074365
11
107.331343
21
131.035091
0
LINE
8
Layer 1
10
107.331343
20
131.035091
11
107.331343
21
130.373633
0
LINE
8
Layer 1
10
107.331343
20
130.373633
11
107.237092
21
130.334359
0
LINE
8
Layer 1
10
107.237092
20
130.334359
11
107.197890
21
130.704362
0
LINE
8
Layer 1
10
107.197890
20
130.704362
11
107.197890
21
130.704362
0
LINE
8
Layer 1
10
180.271725
20
134.011650
11
180.302847
21
135.174174
0
LINE
8
Layer 1
10
180.302847
20
135.174174
11
180.335512
21
135.269154
0
LINE
8
Layer 1
10
180.335512
20
135.269154
11
180.375095
21
134.996843
0
LINE
8
Layer 1
10
180.375095
20
134.996843
11
180.373243
21
132.880179
0
LINE
8
Layer 1
10
180.373243
20
132.880179
11
180.333245
21
132.664665
0
LINE
8
Layer 1
10
180.333245
20
132.664665
11
180.300753
21
132.806156
0
LINE
8
Layer 1
10
180.300753
20
132.806156
11
180.271622
21
134.011650
0
LINE
8
Layer 1
10
180.271622
20
134.011650
11
180.271725
21
134.011650
0
LINE
8
Layer 1
10
107.462473
20
133.614775
11
107.501675
21
133.984778
0
LINE
8
Layer 1
10
107.501675
20
133.984778
11
107.595926
21
133.945504
0
LINE
8
Layer 1
10
107.595926
20
133.945504
11
107.595926
21
133.284046
0
LINE
8
Layer 1
10
107.595926
20
133.284046
11
107.501675
21
133.244772
0
LINE
8
Layer 1
10
107.501675
20
133.244772
11
107.462473
21
133.614775
0
LINE
8
Layer 1
10
107.462473
20
133.614775
11
107.462473
21
133.614775
0
LINE
8
Layer 1
10
107.706170
20
136.150361
11
107.759185
21
136.425022
0
LINE
8
Layer 1
10
107.759185
20
136.425022
11
107.866020
21
136.310214
0
LINE
8
Layer 1
10
107.866020
20
136.310214
11
107.845145
21
135.803096
0
LINE
8
Layer 1
10
107.845145
20
135.803096
11
107.738385
21
135.839167
0
LINE
8
Layer 1
10
107.738385
20
135.839167
11
107.706180
21
136.150361
0
LINE
8
Layer 1
10
107.706180
20
136.150361
11
107.706170
21
136.150361
0
LINE
8
Layer 1
10
180.201912
20
140.119106
11
180.254927
21
140.393767
0
LINE
8
Layer 1
10
180.254927
20
140.393767
11
180.361762
21
140.278959
0
LINE
8
Layer 1
10
180.361762
20
140.278959
11
180.340887
21
139.771841
0
LINE
8
Layer 1
10
180.340887
20
139.771841
11
180.234127
21
139.807912
0
LINE
8
Layer 1
10
180.234127
20
139.807912
11
180.201922
21
140.119106
0
LINE
8
Layer 1
10
180.201922
20
140.119106
11
180.201912
21
140.119106
0
LINE
8
Layer 1
10
108.499919
20
141.442021
11
108.552934
21
141.716682
0
LINE
8
Layer 1
10
108.552934
20
141.716682
11
108.659769
21
141.601874
0
LINE
8
Layer 1
10
108.659769
20
141.601874
11
108.638894
21
141.094756
0
LINE
8
Layer 1
10
108.638894
20
141.094756
11
108.532134
21
141.130827
0
LINE
8
Layer 1
10
108.532134
20
141.130827
11
108.499929
21
141.442021
0
LINE
8
Layer 1
10
108.499929
20
141.442021
11
108.499919
21
141.442021
0
LINE
8
Layer 1
10
109.029085
20
144.881600
11
109.082100
21
145.156261
0
LINE
8
Layer 1
10
109.082100
20
145.156261
11
109.188935
21
145.041453
0
LINE
8
Layer 1
10
109.188935
20
145.041453
11
109.168060
21
144.534335
0
LINE
8
Layer 1
10
109.168060
20
144.534335
11
109.061300
21
144.570406
0
LINE
8
Layer 1
10
109.061300
20
144.570406
11
109.029095
21
144.881600
0
LINE
8
Layer 1
10
109.029095
20
144.881600
11
109.029085
21
144.881600
0
LINE
8
Layer 1
10
211.103484
20
148.629860
11
210.872650
21
148.960590
0
LINE
8
Layer 1
10
210.872650
20
148.960590
11
211.203380
21
148.729756
0
LINE
8
Layer 1
10
211.203380
20
148.729756
11
211.666400
21
148.266736
0
LINE
8
Layer 1
10
211.666400
20
148.266736
11
211.627050
21
148.169628
0
LINE
8
Layer 1
10
211.627050
20
148.169628
11
211.514558
21
148.201364
0
LINE
8
Layer 1
10
211.514558
20
148.201364
11
211.103484
21
148.629860
0
LINE
8
Layer 1
10
211.103484
20
148.629860
11
211.103484
21
148.629860
0
LINE
8
Layer 1
10
222.712740
20
149.135817
11
223.374198
21
149.135817
0
LINE
8
Layer 1
10
223.374198
20
149.135817
11
223.413472
21
149.041566
0
LINE
8
Layer 1
10
223.413472
20
149.041566
11
223.043469
21
149.002364
0
LINE
8
Layer 1
10
223.043469
20
149.002364
11
222.673466
21
149.041566
0
LINE
8
Layer 1
10
222.673466
20
149.041566
11
222.712740
21
149.135817
0
LINE
8
Layer 1
10
222.712740
20
149.135817
11
222.712740
21
149.135817
0
LINE
8
Layer 1
10
233.403981
20
157.162662
11
233.443183
21
157.532665
0
LINE
8
Layer 1
10
233.443183
20
157.532665
11
233.537434
21
157.493391
0
LINE
8
Layer 1
10
233.537434
20
157.493391
11
233.537434
21
156.831933
0
LINE
8
Layer 1
10
233.537434
20
156.831933
11
233.443183
21
156.792659
0
LINE
8
Layer 1
10
233.443183
20
156.792659
11
233.403981
21
157.162662
0
LINE
8
Layer 1
10
233.403981
20
157.162662
11
233.403981
21
157.162662
0
LINE
8
Layer 1
10
206.354714
20
172.177747
11
205.713283
21
172.905350
0
LINE
8
Layer 1
10
205.713283
20
172.905350
11
206.440886
21
172.263919
0
LINE
8
Layer 1
10
206.440886
20
172.263919
11
207.094437
21
171.632213
0
LINE
8
Layer 1
10
207.094437
20
171.632213
11
207.165268
21
171.492989
0
LINE
8
Layer 1
10
207.165268
20
171.492989
11
207.082317
21
171.450144
0
LINE
8
Layer 1
10
207.082317
20
171.450144
11
206.354714
21
172.177747
0
LINE
8
Layer 1
10
206.354714
20
172.177747
11
206.354714
21
172.177747
0
LINE
8
Layer 1
10
105.270284
20
172.971496
11
105.039450
21
173.302226
0
LINE
8
Layer 1
10
105.039450
20
173.302226
11
105.370180
21
173.071392
0
LINE
8
Layer 1
10
105.370180
20
173.071392
11
105.798676
21
172.660318
0
LINE
8
Layer 1
10
105.798676
20
172.660318
11
105.830412
21
172.547826
0
LINE
8
Layer 1
10
105.830412
20
172.547826
11
105.733304
21
172.508476
0
LINE
8
Layer 1
10
105.733304
20
172.508476
11
105.270284
21
172.971496
0
LINE
8
Layer 1
10
105.270284
20
172.971496
11
105.270284
21
172.971496
0
LINE
8
Layer 1
10
201.049330
20
178.792322
11
200.818496
21
179.123052
0
LINE
8
Layer 1
10
200.818496
20
179.123052
11
201.149226
21
178.892218
0
LINE
8
Layer 1
10
201.149226
20
178.892218
11
201.577722
21
178.481144
0
LINE
8
Layer 1
10
201.577722
20
178.481144
11
201.609458
21
178.368652
0
LINE
8
Layer 1
10
201.609458
20
178.368652
11
201.512350
21
178.329302
0
LINE
8
Layer 1
10
201.512350
20
178.329302
11
201.049330
21
178.792322
0
LINE
8
Layer 1
10
201.049330
20
178.792322
11
201.049330
21
178.792322
0
LINE
8
Layer 1
10
175.368920
20
179.039207
11
175.876038
21
179.018332
0
LINE
8
Layer 1
10
175.876038
20
179.018332
11
175.839967
21
178.911572
0
LINE
8
Layer 1
10
175.839967
20
178.911572
11
175.528773
21
178.879367
0
LINE
8
Layer 1
10
175.528773
20
178.879367
11
175.254112
21
178.932383
0
LINE
8
Layer 1
10
175.254112
20
178.932383
11
175.368920
21
179.039218
0
LINE
8
Layer 1
10
175.368920
20
179.039218
11
175.368920
21
179.039207
0
LINE
8
Layer 1
10
199.990998
20
179.850654
11
199.760164
21
180.181384
0
LINE
8
Layer 1
10
199.760164
20
180.181384
11
200.090894
21
179.950550
0
LINE
8
Layer 1
10
200.090894
20
179.950550
11
200.519390
21
179.539476
0
LINE
8
Layer 1
10
200.519390
20
179.539476
11
200.551126
21
179.426984
0
LINE
8
Layer 1
10
200.551126
20
179.426984
11
200.454018
21
179.387634
0
LINE
8
Layer 1
10
200.454018
20
179.387634
11
199.990998
21
179.850654
0
LINE
8
Layer 1
10
199.990998
20
179.850654
11
199.990998
21
179.850654
0
LINE
8
Layer 1
10
180.660580
20
179.832954
11
181.167698
21
179.812078
0
LINE
8
Layer 1
10
181.167698
20
179.812078
11
181.131627
21
179.705318
0
LINE
8
Layer 1
10
181.131627
20
179.705318
11
180.820433
21
179.673114
0
LINE
8
Layer 1
10
180.820433
20
179.673114
11
180.545772
21
179.726129
0
LINE
8
Layer 1
10
180.545772
20
179.726129
11
180.660580
21
179.832964
0
LINE
8
Layer 1
10
180.660580
20
179.832964
11
180.660580
21
179.832954
0
LINE
8
Layer 1
10
183.289873
20
180.092025
11
183.951331
21
180.092025
0
LINE
8
Layer 1
10
183.951331
20
180.092025
11
183.990605
21
179.997775
0
LINE
8
Layer 1
10
183.990605
20
179.997775
11
183.620602
21
179.958572
0
LINE
8
Layer 1
10
183.620602
20
179.958572
11
183.250599
21
179.997775
0
LINE
8
Layer 1
10
183.250599
20
179.997775
11
183.289873
21
180.092025
0
LINE
8
Layer 1
10
183.289873
20
180.092025
11
183.289873
21
180.092025
0
LINE
8
Layer 1
10
186.216823
20
180.362120
11
186.723941
21
180.341244
0
LINE
8
Layer 1
10
186.723941
20
180.341244
11
186.687870
21
180.234484
0
LINE
8
Layer 1
10
186.687870
20
180.234484
11
186.376676
21
180.202280
0
LINE
8
Layer 1
10
186.376676
20
180.202280
11
186.102015
21
180.255295
0
LINE
8
Layer 1
10
186.102015
20
180.255295
11
186.216823
21
180.362130
0
LINE
8
Layer 1
10
186.216823
20
180.362130
11
186.216823
21
180.362120
0
LINE
8
Layer 1
10
188.068904
20
180.626703
11
188.576022
21
180.605827
0
LINE
8
Layer 1
10
188.576022
20
180.605827
11
188.539951
21
180.499067
0
LINE
8
Layer 1
10
188.539951
20
180.499067
11
188.228757
21
180.466863
0
LINE
8
Layer 1
10
188.228757
20
180.466863
11
187.954096
21
180.519878
0
LINE
8
Layer 1
10
187.954096
20
180.519878
11
188.068904
21
180.626713
0
LINE
8
Layer 1
10
188.068904
20
180.626713
11
188.068904
21
180.626703
0
LINE
8
Layer 1
10
190.450151
20
180.891286
11
190.957269
21
180.870410
0
LINE
8
Layer 1
10
190.957269
20
180.870410
11
190.921198
21
180.763650
0
LINE
8
Layer 1
10
190.921198
20
180.763650
11
190.610004
21
180.731446
0
LINE
8
Layer 1
10
190.610004
20
180.731446
11
190.335343
21
180.784461
0
LINE
8
Layer 1
10
190.335343
20
180.784461
11
190.450151
21
180.891296
0
LINE
8
Layer 1
10
190.450151
20
180.891296
11
190.450151
21
180.891286
0
LINE
8
Layer 1
10
197.329309
20
181.420452
11
197.836427
21
181.399576
0
LINE
8
Layer 1
10
197.836427
20
181.399576
11
197.800356
21
181.292816
0
LINE
8
Layer 1
10
197.800356
20
181.292816
11
197.489162
21
181.260612
0
LINE
8
Layer 1
10
197.489162
20
181.260612
11
197.214501
21
181.313627
0
LINE
8
Layer 1
10
197.214501
20
181.313627
11
197.329309
21
181.420462
0
LINE
8
Layer 1
10
197.329309
20
181.420462
11
197.329309
21
181.420452
0
LINE
8
Layer 1
10
98.466651
20
193.939699
11
98.505853
21
194.309702
0
LINE
8
Layer 1
10
98.505853
20
194.309702
11
98.600104
21
194.270428
0
LINE
8
Layer 1
10
98.600104
20
194.270428
11
98.600104
21
193.608970
0
LINE
8
Layer 1
10
98.600104
20
193.608970
11
98.505853
21
193.569696
0
LINE
8
Layer 1
10
98.505853
20
193.569696
11
98.466651
21
193.939699
0
LINE
8
Layer 1
10
98.466651
20
193.939699
11
98.466651
21
193.939699
0
LINE
8
Layer 1
10
174.186316
20
196.982403
11
174.217438
21
198.144928
0
LINE
8
Layer 1
10
174.217438
20
198.144928
11
174.250103
21
198.239908
0
LINE
8
Layer 1
10
174.250103
20
198.239908
11
174.289686
21
197.967597
0
LINE
8
Layer 1
10
174.289686
20
197.967597
11
174.287834
21
195.850933
0
LINE
8
Layer 1
10
174.287834
20
195.850933
11
174.247836
21
195.635419
0
LINE
8
Layer 1
10
174.247836
20
195.635419
11
174.215344
21
195.776910
0
LINE
8
Layer 1
10
174.215344
20
195.776910
11
174.186213
21
196.982403
0
LINE
8
Layer 1
10
174.186213
20
196.982403
11
174.186316
21
196.982403
0
LINE
8
Layer 1
10
95.980568
20
198.360156
11
97.038900
21
198.354811
0
LINE
8
Layer 1
10
97.038900
20
198.354811
11
97.133974
21
198.308482
0
LINE
8
Layer 1
10
97.133974
20
198.308482
11
97.052841
21
198.271343
0
LINE
8
Layer 1
10
97.052841
20
198.271343
11
96.440504
21
198.239744
0
LINE
8
Layer 1
10
96.440504
20
198.239744
11
95.868836
21
198.277317
0
LINE
8
Layer 1
10
95.868836
20
198.277317
11
95.980568
21
198.360151
0
LINE
8
Layer 1
10
95.980568
20
198.360151
11
95.980568
21
198.360156
0
LINE
8
Layer 1
10
173.566448
20
200.257295
11
173.942508
21
200.801582
0
LINE
8
Layer 1
10
173.942508
20
200.801582
11
174.218880
21
200.949000
0
LINE
8
Layer 1
10
174.218880
20
200.949000
11
174.176230
21
200.569395
0
LINE
8
Layer 1
10
174.176230
20
200.569395
11
173.819189
21
200.041188
0
LINE
8
Layer 1
10
173.819189
20
200.041188
11
173.642170
21
200.036953
0
LINE
8
Layer 1
10
173.642170
20
200.036953
11
173.566448
21
200.257295
0
LINE
8
Layer 1
10
173.566448
20
200.257295
11
173.566448
21
200.257295
0
LINE
8
Layer 1
10
90.274383
20
200.951148
11
90.317138
21
201.374243
0
LINE
8
Layer 1
10
90.317138
20
201.374243
11
90.406156
21
201.276842
0
LINE
8
Layer 1
10
90.406156
20
201.276842
11
90.396340
21
200.483093
0
LINE
8
Layer 1
10
90.396340
20
200.483093
11
90.306154
21
200.486236
0
LINE
8
Layer 1
10
90.306154
20
200.486236
11
90.274370
21
200.951148
0
LINE
8
Layer 1
10
90.274370
20
200.951148
11
90.274383
21
200.951148
0
LINE
8
Layer 1
10
90.793744
20
204.787602
11
90.832946
21
205.157605
0
LINE
8
Layer 1
10
90.832946
20
205.157605
11
90.927197
21
205.118331
0
LINE
8
Layer 1
10
90.927197
20
205.118331
11
90.927197
21
204.456873
0
LINE
8
Layer 1
10
90.927197
20
204.456873
11
90.832946
21
204.417599
0
LINE
8
Layer 1
10
90.832946
20
204.417599
11
90.793744
21
204.787602
0
LINE
8
Layer 1
10
90.793744
20
204.787602
11
90.793744
21
204.787602
0
LINE
8
Layer 1
10
182.130989
20
208.227181
11
182.159535
21
209.781193
0
LINE
8
Layer 1
10
182.159535
20
209.781193
11
182.190434
21
209.936377
0
LINE
8
Layer 1
10
182.190434
20
209.936377
11
182.228165
21
209.616242
0
LINE
8
Layer 1
10
182.228165
20
209.616242
11
182.228165
21
206.838120
0
LINE
8
Layer 1
10
182.228165
20
206.838120
11
182.190434
21
206.517985
0
LINE
8
Layer 1
10
182.190434
20
206.517985
11
182.159535
21
206.673169
0
LINE
8
Layer 1
10
182.159535
20
206.673169
11
182.130989
21
208.227181
0
LINE
8
Layer 1
10
182.130989
20
208.227181
11
182.130989
21
208.227181
0
LINE
8
Layer 1
10
91.342518
20
208.756347
11
91.378063
21
209.274351
0
LINE
8
Layer 1
10
91.378063
20
209.274351
11
91.463520
21
209.219367
0
LINE
8
Layer 1
10
91.463520
20
209.219367
11
91.463520
21
208.293327
0
LINE
8
Layer 1
10
91.463520
20
208.293327
11
91.378063
21
208.238343
0
LINE
8
Layer 1
10
91.378063
20
208.238343
11
91.342518
21
208.756347
0
LINE
8
Layer 1
10
91.342518
20
208.756347
11
91.342518
21
208.756347
0
LINE
8
Layer 1
10
91.566607
20
213.937763
11
91.619622
21
214.212424
0
LINE
8
Layer 1
10
91.619622
20
214.212424
11
91.726457
21
214.097616
0
LINE
8
Layer 1
10
91.726457
20
214.097616
11
91.705582
21
213.590498
0
LINE
8
Layer 1
10
91.705582
20
213.590498
11
91.598822
21
213.626569
0
LINE
8
Layer 1
10
91.598822
20
213.626569
11
91.566617
21
213.937763
0
LINE
8
Layer 1
10
91.566617
20
213.937763
11
91.566607
21
213.937763
0
LINE
8
Layer 1
10
181.835244
20
215.767797
11
181.872816
21
216.339464
0
LINE
8
Layer 1
10
181.872816
20
216.339464
11
181.955650
21
216.227732
0
LINE
8
Layer 1
10
181.955650
20
216.227732
11
181.950305
21
215.169400
0
LINE
8
Layer 1
10
181.950305
20
215.169400
11
181.903976
21
215.074326
0
LINE
8
Layer 1
10
181.903976
20
215.074326
11
181.866837
21
215.155459
0
LINE
8
Layer 1
10
181.866837
20
215.155459
11
181.835238
21
215.767797
0
LINE
8
Layer 1
10
181.835238
20
215.767797
11
181.835244
21
215.767797
0
LINE
8
Layer 1
10
102.393621
20
235.611521
11
103.963043
21
237.066728
0
LINE
8
Layer 1
10
103.963043
20
237.066728
11
102.658204
21
235.611521
0
LINE
8
Layer 1
10
102.658204
20
235.611521
11
101.088782
21
234.156315
0
LINE
8
Layer 1
10
101.088782
20
234.156315
11
102.393621
21
235.611521
0
LINE
8
Layer 1
10
102.393621
20
235.611521
11
102.393621
21
235.611521
0
LINE
8
Layer 1
10
171.027771
20
237.926623
11
170.523743
21
238.521934
0
LINE
8
Layer 1
10
170.523743
20
238.521934
11
171.119055
21
238.017907
0
LINE
8
Layer 1
10
171.119055
20
238.017907
11
171.660261
21
237.496986
0
LINE
8
Layer 1
10
171.660261
20
237.496986
11
171.712325
21
237.371983
0
LINE
8
Layer 1
10
171.712325
20
237.371983
11
171.623083
21
237.331311
0
LINE
8
Layer 1
10
171.623083
20
237.331311
11
171.027771
21
237.926623
0
LINE
8
Layer 1
10
171.027771
20
237.926623
11
171.027771
21
237.926623
0
LINE
8
Layer 1
10
105.568617
20
238.786518
11
106.322316
21
239.447975
0
LINE
8
Layer 1
10
106.322316
20
239.447975
11
105.833200
21
238.786518
0
LINE
8
Layer 1
10
105.833200
20
238.786518
11
105.079501
21
238.125060
0
LINE
8
Layer 1
10
105.079501
20
238.125060
11
105.568617
21
238.786518
0
LINE
8
Layer 1
10
105.568617
20
238.786518
11
105.568617
21
238.786518
0
LINE
8
Layer 1
10
129.314941
20
248.883608
11
129.976399
21
248.883608
0
LINE
8
Layer 1
10
129.976399
20
248.883608
11
130.015673
21
248.789357
0
LINE
8
Layer 1
10
130.015673
20
248.789357
11
129.645670
21
248.750155
0
LINE
8
Layer 1
10
129.645670
20
248.750155
11
129.275667
21
248.789357
0
LINE
8
Layer 1
10
129.275667
20
248.789357
11
129.314941
21
248.883608
0
LINE
8
Layer 1
10
129.314941
20
248.883608
11
129.314941
21
248.883608
0
LINE
8
Layer 1
10
133.685596
20
249.156316
11
134.479345
21
249.146500
0
LINE
8
Layer 1
10
134.479345
20
249.146500
11
134.476202
21
249.056314
0
LINE
8
Layer 1
10
134.476202
20
249.056314
11
134.011290
21
249.024530
0
LINE
8
Layer 1
10
134.011290
20
249.024530
11
133.588195
21
249.067285
0
LINE
8
Layer 1
10
133.588195
20
249.067285
11
133.685596
21
249.156303
0
LINE
8
Layer 1
10
133.685596
20
249.156303
11
133.685596
21
249.156316
0
LINE
8
Layer 1
10
180.635444
20
9.798980
11
179.584673
21
10.132571
0
LINE
8
Layer 1
10
179.584673
20
10.132571
11
178.638694
21
10.591998
0
LINE
8
Layer 1
10
178.638694
20
10.591998
11
176.851410
21
12.010947
0
LINE
8
Layer 1
10
176.851410
20
12.010947
11
175.610126
21
13.069771
0
LINE
8
Layer 1
10
175.610126
20
13.069771
11
174.158521
21
14.090040
0
LINE
8
Layer 1
10
174.158521
20
14.090040
11
172.955773
21
14.979899
0
LINE
8
Layer 1
10
172.955773
20
14.979899
11
171.951126
21
16.056970
0
LINE
8
Layer 1
10
171.951126
20
16.056970
11
171.096284
21
17.383684
0
LINE
8
Layer 1
10
171.096284
20
17.383684
11
170.342951
21
19.022475
0
LINE
8
Layer 1
10
170.342951
20
19.022475
11
169.979817
21
20.088183
0
LINE
8
Layer 1
10
169.979817
20
20.088183
11
169.812917
21
21.688996
0
LINE
8
Layer 1
10
169.812917
20
21.688996
11
169.889004
21
31.353445
0
LINE
8
Layer 1
10
169.889004
20
31.353445
11
169.968672
21
36.380522
0
LINE
8
Layer 1
10
169.968672
20
36.380522
11
168.751469
21
41.010725
0
LINE
8
Layer 1
10
168.751469
20
41.010725
11
167.355299
21
46.699259
0
LINE
8
Layer 1
10
167.355299
20
46.699259
11
166.894900
21
48.068477
0
LINE
8
Layer 1
10
166.894900
20
48.068477
11
166.039302
21
49.874255
0
LINE
8
Layer 1
10
166.039302
20
49.874255
11
164.443409
21
53.446126
0
LINE
8
Layer 1
10
164.443409
20
53.446126
11
162.114859
21
59.624038
0
LINE
8
Layer 1
10
162.114859
20
59.624038
11
160.788096
21
62.673653
0
LINE
8
Layer 1
10
160.788096
20
62.673653
11
159.760272
21
64.716893
0
LINE
8
Layer 1
10
159.760272
20
64.716893
11
157.041989
21
68.678658
0
LINE
8
Layer 1
10
157.041989
20
68.678658
11
155.598326
21
70.400867
0
LINE
8
Layer 1
10
155.598326
20
70.400867
11
154.164291
21
71.866334
0
LINE
8
Layer 1
10
154.164291
20
71.866334
11
152.460813
21
73.453205
0
LINE
8
Layer 1
10
152.460813
20
73.453205
11
149.308153
21
73.340802
0
LINE
8
Layer 1
10
149.308153
20
73.340802
11
145.048466
21
73.480809
0
LINE
8
Layer 1
10
145.048466
20
73.480809
11
140.978550
21
74.112295
0
LINE
8
Layer 1
10
140.978550
20
74.112295
11
139.195889
21
74.572369
0
LINE
8
Layer 1
10
139.195889
20
74.572369
11
137.678029
21
75.107345
0
LINE
8
Layer 1
10
137.678029
20
75.107345
11
136.497423
21
75.701234
0
LINE
8
Layer 1
10
136.497423
20
75.701234
11
135.726523
21
76.338046
0
LINE
8
Layer 1
10
135.726523
20
76.338046
11
135.339022
21
76.639181
0
LINE
8
Layer 1
10
135.339022
20
76.639181
11
134.758068
21
76.672430
0
LINE
8
Layer 1
10
134.758068
20
76.672430
11
132.264719
21
75.823659
0
LINE
8
Layer 1
10
132.264719
20
75.823659
11
127.414515
21
74.189381
0
LINE
8
Layer 1
10
127.414515
20
74.189381
11
122.105055
21
73.027350
0
LINE
8
Layer 1
10
122.105055
20
73.027350
11
116.834484
21
72.071142
0
LINE
8
Layer 1
10
116.834484
20
72.071142
11
115.031983
21
71.815605
0
LINE
8
Layer 1
10
115.031983
20
71.815605
11
113.683407
21
71.817912
0
LINE
8
Layer 1
10
113.683407
20
71.817912
11
112.586230
21
71.890507
0
LINE
8
Layer 1
10
112.586230
20
71.890507
11
111.497588
21
71.806799
0
LINE
8
Layer 1
10
111.497588
20
71.806799
11
110.663781
21
71.603554
0
LINE
8
Layer 1
10
110.663781
20
71.603554
11
110.331111
21
71.317536
0
LINE
8
Layer 1
10
110.331111
20
71.317536
11
111.968020
21
68.635601
0
LINE
8
Layer 1
10
111.968020
20
68.635601
11
114.235234
21
65.133958
0
LINE
8
Layer 1
10
114.235234
20
65.133958
11
116.281962
21
61.387444
0
LINE
8
Layer 1
10
116.281962
20
61.387444
11
118.346985
21
56.918988
0
LINE
8
Layer 1
10
118.346985
20
56.918988
11
120.669086
21
51.251521
0
LINE
8
Layer 1
10
120.669086
20
51.251521
11
123.055746
21
45.827570
0
LINE
8
Layer 1
10
123.055746
20
45.827570
11
124.851615
21
42.528709
0
LINE
8
Layer 1
10
124.851615
20
42.528709
11
125.676811
21
40.463702
0
LINE
8
Layer 1
10
125.676811
20
40.463702
11
125.785141
21
39.639374
0
LINE
8
Layer 1
10
125.785141
20
39.639374
11
125.722484
21
38.818086
0
LINE
8
Layer 1
10
125.722484
20
38.818086
11
125.179787
21
36.777397
0
LINE
8
Layer 1
10
125.179787
20
36.777397
11
124.567483
21
35.264378
0
LINE
8
Layer 1
10
124.567483
20
35.264378
11
123.711593
21
34.009607
0
LINE
8
Layer 1
10
123.711593
20
34.009607
11
122.540602
21
32.930749
0
LINE
8
Layer 1
10
122.540602
20
32.930749
11
120.983000
21
31.945468
0
LINE
8
Layer 1
10
120.983000
20
31.945468
11
119.861086
21
31.488589
0
LINE
8
Layer 1
10
119.861086
20
31.488589
11
118.253002
21
31.049001
0
LINE
8
Layer 1
10
118.253002
20
31.049001
11
113.958437
21
30.275060
0
LINE
8
Layer 1
10
113.958437
20
30.275060
11
108.859538
21
29.730366
0
LINE
8
Layer 1
10
108.859538
20
29.730366
11
103.716536
21
29.521637
0
LINE
8
Layer 1
10
103.716536
20
29.521637
11
99.661639
21
29.626667
0
LINE
8
Layer 1
10
99.661639
20
29.626667
11
98.555231
21
29.869743
0
LINE
8
Layer 1
10
98.555231
20
29.869743
11
97.316014
21
30.334730
0
LINE
8
Layer 1
10
97.316014
20
30.334730
11
95.650960
21
31.124416
0
LINE
8
Layer 1
10
95.650960
20
31.124416
11
93.912600
21
32.162670
0
LINE
8
Layer 1
10
93.912600
20
32.162670
11
92.232022
21
33.363633
0
LINE
8
Layer 1
10
92.232022
20
33.363633
11
90.740314
21
34.641450
0
LINE
8
Layer 1
10
90.740314
20
34.641450
11
89.905672
21
35.623016
0
LINE
8
Layer 1
10
89.905672
20
35.623016
11
89.693637
21
36.563132
0
LINE
8
Layer 1
10
89.693637
20
36.563132
11
89.801831
21
37.324650
0
LINE
8
Layer 1
10
89.801831
20
37.324650
11
90.231510
21
37.917517
0
LINE
8
Layer 1
10
90.231510
20
37.917517
11
91.140323
21
38.477518
0
LINE
8
Layer 1
10
91.140323
20
38.477518
11
92.685915
21
39.140435
0
LINE
8
Layer 1
10
92.685915
20
39.140435
11
96.025780
21
40.604807
0
LINE
8
Layer 1
10
96.025780
20
40.604807
11
98.075413
21
41.482846
0
LINE
8
Layer 1
10
98.075413
20
41.482846
11
100.648058
21
42.393979
0
LINE
8
Layer 1
10
100.648058
20
42.393979
11
102.997618
21
43.093992
0
LINE
8
Layer 1
10
102.997618
20
43.093992
11
104.377994
21
43.338669
0
LINE
8
Layer 1
10
104.377994
20
43.338669
11
104.813962
21
43.319526
0
LINE
8
Layer 1
10
104.813962
20
43.319526
11
105.060919
21
43.413084
0
LINE
8
Layer 1
10
105.060919
20
43.413084
11
105.239412
21
44.185721
0
LINE
8
Layer 1
10
105.239412
20
44.185721
11
105.025027
21
45.594096
0
LINE
8
Layer 1
10
105.025027
20
45.594096
11
104.369072
21
47.757591
0
LINE
8
Layer 1
10
104.369072
20
47.757591
11
102.242372
21
54.239875
0
LINE
8
Layer 1
10
102.242372
20
54.239875
11
100.520790
21
58.871684
0
LINE
8
Layer 1
10
100.520790
20
58.871684
11
98.225261
21
63.709775
0
LINE
8
Layer 1
10
98.225261
20
63.709775
11
95.587485
21
68.310826
0
LINE
8
Layer 1
10
95.587485
20
68.310826
11
92.839161
21
72.231519
0
LINE
8
Layer 1
10
92.839161
20
72.231519
11
91.227767
21
74.766053
0
LINE
8
Layer 1
10
91.227767
20
74.766053
11
89.236816
21
78.375919
0
LINE
8
Layer 1
10
89.236816
20
78.375919
11
89.021564
21
78.954869
0
LINE
8
Layer 1
10
89.021564
20
78.954869
11
89.056701
21
79.551777
0
LINE
8
Layer 1
10
89.056701
20
79.551777
11
89.440204
21
80.261756
0
LINE
8
Layer 1
10
89.440204
20
80.261756
11
90.270049
21
81.179920
0
LINE
8
Layer 1
10
90.270049
20
81.179920
11
93.660670
21
84.021259
0
LINE
8
Layer 1
10
93.660670
20
84.021259
11
100.012374
21
88.836700
0
LINE
8
Layer 1
10
100.012374
20
88.836700
11
108.493514
21
95.249279
0
LINE
8
Layer 1
10
108.493514
20
95.249279
11
111.585758
21
97.902454
0
LINE
8
Layer 1
10
111.585758
20
97.902454
11
112.956377
21
99.389379
0
LINE
8
Layer 1
10
112.956377
20
99.389379
11
113.932541
21
100.700764
0
LINE
8
Layer 1
10
113.932541
20
100.700764
11
114.627804
21
101.887141
0
LINE
8
Layer 1
10
114.627804
20
101.887141
11
114.158775
21
103.132747
0
LINE
8
Layer 1
10
114.158775
20
103.132747
11
112.639772
21
106.627309
0
LINE
8
Layer 1
10
112.639772
20
106.627309
11
110.662194
21
111.442467
0
LINE
8
Layer 1
10
110.662194
20
111.442467
11
109.047285
21
116.543191
0
LINE
8
Layer 1
10
109.047285
20
116.543191
11
107.890386
21
121.580760
0
LINE
8
Layer 1
10
107.890386
20
121.580760
11
107.286835
21
126.206451
0
LINE
8
Layer 1
10
107.286835
20
126.206451
11
107.291238
21
128.750979
0
LINE
8
Layer 1
10
107.291238
20
128.750979
11
107.480589
21
132.234999
0
LINE
8
Layer 1
10
107.480589
20
132.234999
11
107.772018
21
135.495911
0
LINE
8
Layer 1
10
107.772018
20
135.495911
11
108.082656
21
137.371115
0
LINE
8
Layer 1
10
108.082656
20
137.371115
11
109.287752
21
145.917884
0
LINE
8
Layer 1
10
109.287752
20
145.917884
11
109.799648
21
148.828297
0
LINE
8
Layer 1
10
109.799648
20
148.828297
11
110.174401
21
150.815459
0
LINE
8
Layer 1
10
110.174401
20
150.815459
11
110.984020
21
153.990455
0
LINE
8
Layer 1
10
110.984020
20
153.990455
11
112.337036
21
158.601544
0
LINE
8
Layer 1
10
112.337036
20
158.601544
11
113.934758
21
163.593974
0
LINE
8
Layer 1
10
113.934758
20
163.593974
11
114.640450
21
165.575510
0
LINE
8
Layer 1
10
114.640450
20
165.575510
11
114.756040
21
166.246439
0
LINE
8
Layer 1
10
114.756040
20
166.246439
11
114.688050
21
166.777465
0
LINE
8
Layer 1
10
114.688050
20
166.777465
11
114.417422
21
167.223582
0
LINE
8
Layer 1
10
114.417422
20
167.223582
11
113.925099
21
167.639783
0
LINE
8
Layer 1
10
113.925099
20
167.639783
11
112.199141
21
168.602405
0
LINE
8
Layer 1
10
112.199141
20
168.602405
11
109.329549
21
170.176977
0
LINE
8
Layer 1
10
109.329549
20
170.176977
11
107.118229
21
171.643174
0
LINE
8
Layer 1
10
107.118229
20
171.643174
11
105.394192
21
173.129269
0
LINE
8
Layer 1
10
105.394192
20
173.129269
11
103.986448
21
174.763541
0
LINE
8
Layer 1
10
103.986448
20
174.763541
11
103.013237
21
176.190343
0
LINE
8
Layer 1
10
103.013237
20
176.190343
11
102.187284
21
177.781769
0
LINE
8
Layer 1
10
102.187284
20
177.781769
11
100.183533
21
183.224087
0
LINE
8
Layer 1
10
100.183533
20
183.224087
11
98.799940
21
187.713853
0
LINE
8
Layer 1
10
98.799940
20
187.713853
11
98.609279
21
189.100847
0
LINE
8
Layer 1
10
98.609279
20
189.100847
11
98.571222
21
190.764703
0
LINE
8
Layer 1
10
98.571222
20
190.764703
11
98.793609
21
195.817042
0
LINE
8
Layer 1
10
98.793609
20
195.817042
11
99.025823
21
198.091263
0
LINE
8
Layer 1
10
99.025823
20
198.091263
11
97.762381
21
198.264435
0
LINE
8
Layer 1
10
97.762381
20
198.264435
11
95.603217
21
198.437610
0
LINE
8
Layer 1
10
95.603217
20
198.437610
11
94.525657
21
198.601110
0
LINE
8
Layer 1
10
94.525657
20
198.601110
11
93.192752
21
198.994205
0
LINE
8
Layer 1
10
93.192752
20
198.994205
11
91.148843
21
199.609932
0
LINE
8
Layer 1
10
91.148843
20
199.609932
11
90.715188
21
199.883791
0
LINE
8
Layer 1
10
90.715188
20
199.883791
11
90.550050
21
200.731256
0
LINE
8
Layer 1
10
90.550050
20
200.731256
11
90.647171
21
202.382243
0
LINE
8
Layer 1
10
90.647171
20
202.382243
11
91.000291
21
205.066668
0
LINE
8
Layer 1
10
91.000291
20
205.066668
11
91.385498
21
208.307816
0
LINE
8
Layer 1
10
91.385498
20
208.307816
11
91.545718
21
210.859560
0
LINE
8
Layer 1
10
91.545718
20
210.859560
11
91.832890
21
214.453371
0
LINE
8
Layer 1
10
91.832890
20
214.453371
11
92.699716
21
218.215581
0
LINE
8
Layer 1
10
92.699716
20
218.215581
11
94.154158
21
222.172670
0
LINE
8
Layer 1
10
94.154158
20
222.172670
11
96.204178
21
226.351116
0
LINE
8
Layer 1
10
96.204178
20
226.351116
11
98.043914
21
229.561261
0
LINE
8
Layer 1
10
98.043914
20
229.561261
11
99.740711
21
232.134157
0
LINE
8
Layer 1
10
99.740711
20
232.134157
11
101.525714
21
234.390395
0
LINE
8
Layer 1
10
101.525714
20
234.390395
11
103.630068
21
236.650565
0
LINE
8
Layer 1
10
103.630068
20
236.650565
11
107.080577
21
239.746008
0
LINE
8
Layer 1
10
107.080577
20
239.746008
11
108.921879
21
241.091730
0
LINE
8
Layer 1
10
108.921879
20
241.091730
11
110.886826
21
242.329828
0
LINE
8
Layer 1
10
110.886826
20
242.329828
11
115.326486
21
244.564274
0
LINE
8
Layer 1
10
115.326486
20
244.564274
11
120.677232
21
246.611599
0
LINE
8
Layer 1
10
120.677232
20
246.611599
11
124.880251
21
247.843970
0
LINE
8
Layer 1
10
124.880251
20
247.843970
11
129.175227
21
248.651591
0
LINE
8
Layer 1
10
129.175227
20
248.651591
11
134.001616
21
249.094722
0
LINE
8
Layer 1
10
134.001616
20
249.094722
11
139.798873
21
249.233622
0
LINE
8
Layer 1
10
139.798873
20
249.233622
11
143.163640
21
249.086923
0
LINE
8
Layer 1
10
143.163640
20
249.086923
11
146.484232
21
248.626498
0
LINE
8
Layer 1
10
146.484232
20
248.626498
11
149.865038
21
247.832809
0
LINE
8
Layer 1
10
149.865038
20
247.832809
11
153.410446
21
246.686318
0
LINE
8
Layer 1
10
153.410446
20
246.686318
11
158.617509
21
244.799521
0
LINE
8
Layer 1
10
158.617509
20
244.799521
11
161.828284
21
243.455995
0
LINE
8
Layer 1
10
161.828284
20
243.455995
11
165.189827
21
241.734229
0
LINE
8
Layer 1
10
165.189827
20
241.734229
11
168.365965
21
239.821129
0
LINE
8
Layer 1
10
168.365965
20
239.821129
11
171.020527
21
237.903604
0
LINE
8
Layer 1
10
171.020527
20
237.903604
11
172.563962
21
236.431555
0
LINE
8
Layer 1
10
172.563962
20
236.431555
11
174.151765
21
234.528410
0
LINE
8
Layer 1
10
174.151765
20
234.528410
11
175.726134
21
232.295598
0
LINE
8
Layer 1
10
175.726134
20
232.295598
11
177.229269
21
229.834547
0
LINE
8
Layer 1
10
177.229269
20
229.834547
11
178.603368
21
227.246688
0
LINE
8
Layer 1
10
178.603368
20
227.246688
11
179.790629
21
224.633448
0
LINE
8
Layer 1
10
179.790629
20
224.633448
11
180.733251
21
222.096256
0
LINE
8
Layer 1
10
180.733251
20
222.096256
11
181.373432
21
219.736541
0
LINE
8
Layer 1
10
181.373432
20
219.736541
11
181.728526
21
216.440630
0
LINE
8
Layer 1
10
181.728526
20
216.440630
11
181.959166
21
211.580206
0
LINE
8
Layer 1
10
181.959166
20
211.580206
11
182.010456
21
206.994570
0
LINE
8
Layer 1
10
182.010456
20
206.994570
11
181.827499
21
204.523019
0
LINE
8
Layer 1
10
181.827499
20
204.523019
11
181.561019
21
204.144100
0
LINE
8
Layer 1
10
181.561019
20
204.144100
11
181.002834
21
203.735220
0
LINE
8
Layer 1
10
181.002834
20
203.735220
11
178.633501
21
202.600096
0
LINE
8
Layer 1
10
178.633501
20
202.600096
11
174.904881
21
201.179148
0
LINE
8
Layer 1
10
174.904881
20
201.179148
11
174.260973
21
200.956901
0
LINE
8
Layer 1
10
174.260973
20
200.956901
11
173.785918
21
200.634547
0
LINE
8
Layer 1
10
173.785918
20
200.634547
11
173.585346
21
200.312787
0
LINE
8
Layer 1
10
173.585346
20
200.312787
11
173.764885
21
200.092325
0
LINE
8
Layer 1
10
173.764885
20
200.092325
11
173.939622
21
199.820103
0
LINE
8
Layer 1
10
173.939622
20
199.820103
11
174.052466
21
199.192623
0
LINE
8
Layer 1
10
174.052466
20
199.192623
11
174.100807
21
197.173475
0
LINE
8
Layer 1
10
174.100807
20
197.173475
11
173.926580
21
194.638058
0
LINE
8
Layer 1
10
173.926580
20
194.638058
11
173.546456
21
192.189546
0
LINE
8
Layer 1
10
173.546456
20
192.189546
11
172.541045
21
188.371180
0
LINE
8
Layer 1
10
172.541045
20
188.371180
11
171.245720
21
184.618606
0
LINE
8
Layer 1
10
171.245720
20
184.618606
11
169.837888
21
181.389997
0
LINE
8
Layer 1
10
169.837888
20
181.389997
11
168.494955
21
179.143524
0
LINE
8
Layer 1
10
168.494955
20
179.143524
11
168.220283
21
178.705931
0
LINE
8
Layer 1
10
168.220283
20
178.705931
11
168.195922
21
178.386142
0
LINE
8
Layer 1
10
168.195922
20
178.386142
11
168.457227
21
178.182672
0
LINE
8
Layer 1
10
168.457227
20
178.182672
11
169.039556
21
178.094033
0
LINE
8
Layer 1
10
169.039556
20
178.094033
11
171.308711
21
178.255310
0
LINE
8
Layer 1
10
171.308711
20
178.255310
11
175.286237
21
178.858084
0
LINE
8
Layer 1
10
175.286237
20
178.858084
11
182.959145
21
179.931212
0
LINE
8
Layer 1
10
182.959145
20
179.931212
11
189.185925
21
180.635236
0
LINE
8
Layer 1
10
189.185925
20
180.635236
11
194.187846
21
181.391604
0
LINE
8
Layer 1
10
194.187846
20
181.391604
11
195.553626
21
181.627311
0
LINE
8
Layer 1
10
195.553626
20
181.627311
11
196.449370
21
181.644664
0
LINE
8
Layer 1
10
196.449370
20
181.644664
11
197.326219
21
181.380966
0
LINE
8
Layer 1
10
197.326219
20
181.380966
11
198.635314
21
180.773522
0
LINE
8
Layer 1
10
198.635314
20
180.773522
11
199.564930
21
180.157286
0
LINE
8
Layer 1
10
199.564930
20
180.157286
11
200.696621
21
179.109783
0
LINE
8
Layer 1
10
200.696621
20
179.109783
11
203.458821
21
175.831030
0
LINE
8
Layer 1
10
203.458821
20
175.831030
11
206.740799
21
171.729993
0
LINE
8
Layer 1
10
206.740799
20
171.729993
11
210.120764
21
167.613691
0
LINE
8
Layer 1
10
210.120764
20
167.613691
11
211.998621
21
165.559641
0
LINE
8
Layer 1
10
211.998621
20
165.559641
11
214.052611
21
164.022846
0
LINE
8
Layer 1
10
214.052611
20
164.022846
11
216.610678
21
162.807623
0
LINE
8
Layer 1
10
216.610678
20
162.807623
11
220.000765
21
161.718286
0
LINE
8
Layer 1
10
220.000765
20
161.718286
11
224.049729
21
160.703369
0
LINE
8
Layer 1
10
224.049729
20
160.703369
11
228.539636
21
159.952232
0
LINE
8
Layer 1
10
228.539636
20
159.952232
11
231.545211
21
159.340465
0
LINE
8
Layer 1
10
231.545211
20
159.340465
11
232.323417
21
158.943999
0
LINE
8
Layer 1
10
232.323417
20
158.943999
11
232.893301
21
158.388464
0
LINE
8
Layer 1
10
232.893301
20
158.388464
11
233.188690
21
157.884921
0
LINE
8
Layer 1
10
233.188690
20
157.884921
11
233.303873
21
157.319938
0
LINE
8
Layer 1
10
233.303873
20
157.319938
11
233.236121
21
156.687663
0
LINE
8
Layer 1
10
233.236121
20
156.687663
11
232.982703
21
155.982248
0
LINE
8
Layer 1
10
232.982703
20
155.982248
11
231.907949
21
154.328593
0
LINE
8
Layer 1
10
231.907949
20
154.328593
11
230.057771
21
152.312170
0
LINE
8
Layer 1
10
230.057771
20
152.312170
11
229.214878
21
151.365482
0
LINE
8
Layer 1
10
229.214878
20
151.365482
11
228.864295
21
150.741640
0
LINE
8
Layer 1
10
228.864295
20
150.741640
11
228.747813
21
150.452142
0
LINE
8
Layer 1
10
228.747813
20
150.452142
11
228.405870
21
150.180807
0
LINE
8
Layer 1
10
228.405870
20
150.180807
11
227.090615
21
149.703854
0
LINE
8
Layer 1
10
227.090615
20
149.703854
11
225.008556
21
149.333242
0
LINE
8
Layer 1
10
225.008556
20
149.333242
11
222.249720
21
149.091431
0
LINE
8
Layer 1
10
222.249720
20
149.091431
11
217.773566
21
148.655450
0
LINE
8
Layer 1
10
217.773566
20
148.655450
11
216.295206
21
148.289241
0
LINE
8
Layer 1
10
216.295206
20
148.289241
11
214.979712
21
147.761353
0
LINE
8
Layer 1
10
214.979712
20
147.761353
11
213.900999
21
147.332527
0
LINE
8
Layer 1
10
213.900999
20
147.332527
11
213.084378
21
147.257507
0
LINE
8
Layer 1
10
213.084378
20
147.257507
11
212.368565
21
147.560261
0
LINE
8
Layer 1
10
212.368565
20
147.560261
11
211.592280
21
148.264760
0
LINE
8
Layer 1
10
211.592280
20
148.264760
11
209.014285
21
151.508370
0
LINE
8
Layer 1
10
209.014285
20
151.508370
11
206.895696
21
154.797676
0
LINE
8
Layer 1
10
206.895696
20
154.797676
11
206.037581
21
156.290484
0
LINE
8
Layer 1
10
206.037581
20
156.290484
11
204.976368
21
157.529872
0
LINE
8
Layer 1
10
204.976368
20
157.529872
11
203.358267
21
158.854392
0
LINE
8
Layer 1
10
203.358267
20
158.854392
11
200.829490
21
160.602593
0
LINE
8
Layer 1
10
200.829490
20
160.602593
11
195.252266
21
164.335306
0
LINE
8
Layer 1
10
195.252266
20
164.335306
11
191.746636
21
166.603732
0
LINE
8
Layer 1
10
191.746636
20
166.603732
11
190.856830
21
167.076957
0
LINE
8
Layer 1
10
190.856830
20
167.076957
11
190.360206
21
167.216816
0
LINE
8
Layer 1
10
190.360206
20
167.216816
11
186.428420
21
166.047002
0
LINE
8
Layer 1
10
186.428420
20
166.047002
11
179.784148
21
163.902321
0
LINE
8
Layer 1
10
179.784148
20
163.902321
11
175.895633
21
162.559084
0
LINE
8
Layer 1
10
175.895633
20
162.559084
11
175.182111
21
162.190715
0
LINE
8
Layer 1
10
175.182111
20
162.190715
11
175.665250
21
160.786452
0
LINE
8
Layer 1
10
175.665250
20
160.786452
11
176.344569
21
158.220994
0
LINE
8
Layer 1
10
176.344569
20
158.220994
11
177.019325
21
155.668800
0
LINE
8
Layer 1
10
177.019325
20
155.668800
11
178.876134
21
147.319722
0
LINE
8
Layer 1
10
178.876134
20
147.319722
11
180.254371
21
140.361641
0
LINE
8
Layer 1
10
180.254371
20
140.361641
11
180.349232
21
130.175196
0
LINE
8
Layer 1
10
180.349232
20
130.175196
11
180.600120
21
111.652208
0
LINE
8
Layer 1
10
180.600120
20
111.652208
11
180.978889
21
97.896070
0
LINE
8
Layer 1
10
180.978889
20
97.896070
11
181.107686
21
93.086871
0
LINE
8
Layer 1
10
181.107686
20
93.086871
11
181.022649
21
89.782901
0
LINE
8
Layer 1
10
181.022649
20
89.782901
11
180.671880
21
87.294374
0
LINE
8
Layer 1
10
180.671880
20
87.294374
11
180.003483
21
84.931503
0
LINE
8
Layer 1
10
180.003483
20
84.931503
11
179.488598
21
82.967817
0
LINE
8
Layer 1
10
179.488598
20
82.967817
11
179.621994
21
81.095049
0
LINE
8
Layer 1
10
179.621994
20
81.095049
11
180.181978
21
76.597138
0
LINE
8
Layer 1
10
180.181978
20
76.597138
11
180.704736
21
72.562190
0
LINE
8
Layer 1
10
180.704736
20
72.562190
11
181.410541
21
68.338481
0
LINE
8
Layer 1
10
181.410541
20
68.338481
11
182.190409
21
64.516241
0
LINE
8
Layer 1
10
182.190409
20
64.516241
11
182.935353
21
61.685696
0
LINE
8
Layer 1
10
182.935353
20
61.685696
11
183.633312
21
59.258461
0
LINE
8
Layer 1
10
183.633312
20
59.258461
11
184.024073
21
57.404827
0
LINE
8
Layer 1
10
184.024073
20
57.404827
11
184.656776
21
53.700171
0
LINE
8
Layer 1
10
184.656776
20
53.700171
11
185.604112
21
50.271130
0
LINE
8
Layer 1
10
185.604112
20
50.271130
11
186.967733
21
45.773219
0
LINE
8
Layer 1
10
186.967733
20
45.773219
11
187.752964
21
43.327137
0
LINE
8
Layer 1
10
187.752964
20
43.327137
11
188.679260
21
40.975779
0
LINE
8
Layer 1
10
188.679260
20
40.975779
11
189.706011
21
38.242099
0
LINE
8
Layer 1
10
189.706011
20
38.242099
11
190.083575
21
36.676640
0
LINE
8
Layer 1
10
190.083575
20
36.676640
11
191.092982
21
33.925838
0
LINE
8
Layer 1
10
191.092982
20
33.925838
11
194.267628
21
26.734281
0
LINE
8
Layer 1
10
194.267628
20
26.734281
11
195.351067
21
24.496364
0
LINE
8
Layer 1
10
195.351067
20
24.496364
11
195.049550
21
22.738059
0
LINE
8
Layer 1
10
195.049550
20
22.738059
11
194.582582
21
20.875752
0
LINE
8
Layer 1
10
194.582582
20
20.875752
11
193.826322
21
18.837974
0
LINE
8
Layer 1
10
193.826322
20
18.837974
11
192.871547
21
16.838900
0
LINE
8
Layer 1
10
192.871547
20
16.838900
11
191.809038
21
15.092703
0
LINE
8
Layer 1
10
191.809038
20
15.092703
11
190.710835
21
13.744685
0
LINE
8
Layer 1
10
190.710835
20
13.744685
11
189.434773
21
12.548892
0
LINE
8
Layer 1
10
189.434773
20
12.548892
11
188.027138
21
11.527256
0
LINE
8
Layer 1
10
188.027138
20
11.527256
11
186.534218
21
10.701707
0
LINE
8
Layer 1
10
186.534218
20
10.701707
11
185.002302
21
10.094175
0
LINE
8
Layer 1
10
185.002302
20
10.094175
11
183.477676
21
9.726589
0
LINE
8
Layer 1
10
183.477676
20
9.726589
11
182.006627
21
9.620881
0
LINE
8
Layer 1
10
182.006627
20
9.620881
11
180.635444
21
9.798980
0
LINE
8
Layer 1
10
180.635444
20
9.798980
11
180.635444
21
9.798980
 0 
ENDSEC
 0 
EOF