999
"DXF R12 Output" (www.mydxf.blogspot.com)
 0 
SECTION
 2 
HEADER
 9 
$ACADVER
 1 
AC1009
 9 
$EXTMIN
 10 
 0 
 20 
 0 
 9 
$EXTMAX
 10 
 8.5 
 20 
 11 
 0 
ENDSEC
 0 
SECTION
 2 
ENTITIES
0
LINE
8
Image
10
137.186285
20
172.480520
11
135.838461
21
173.002649
0
LINE
8
Image
10
135.838461
20
173.002649
11
134.604851
21
173.826538
0
LINE
8
Image
10
134.604851
20
173.826538
11
133.538716
21
174.908061
0
LINE
8
Image
10
133.538716
20
174.908061
11
132.693312
21
176.203092
0
LINE
8
Image
10
132.693312
20
176.203092
11
132.044187
21
178.005388
0
LINE
8
Image
10
132.044187
20
178.005388
11
131.642207
21
180.233784
0
LINE
8
Image
10
131.642207
20
180.233784
11
131.529072
21
182.522594
0
LINE
8
Image
10
131.529072
20
182.522594
11
131.746483
21
184.506130
0
LINE
8
Image
10
131.746483
20
184.506130
11
132.043390
21
185.199346
0
LINE
8
Image
10
132.043390
20
185.199346
11
132.640376
21
186.031312
0
LINE
8
Image
10
132.640376
20
186.031312
11
134.702951
21
188.083808
0
LINE
8
Image
10
134.702951
20
188.083808
11
137.870939
21
190.608256
0
LINE
8
Image
10
137.870939
20
190.608256
11
142.081071
21
193.549294
0
LINE
8
Image
10
142.081071
20
193.549294
11
148.619052
21
198.084836
0
LINE
8
Image
10
148.619052
20
198.084836
11
155.365918
21
202.611955
0
LINE
8
Image
10
155.365918
20
202.611955
11
158.675282
21
204.518298
0
LINE
8
Image
10
158.675282
20
204.518298
11
162.365191
21
206.429805
0
LINE
8
Image
10
162.365191
20
206.429805
11
165.534736
21
207.902058
0
LINE
8
Image
10
165.534736
20
207.902058
11
167.283007
21
208.490640
0
LINE
8
Image
10
167.283007
20
208.490640
11
171.568420
21
207.829182
0
LINE
8
Image
10
171.568420
20
207.829182
11
174.335671
21
207.387300
0
LINE
8
Image
10
174.335671
20
207.387300
11
176.419057
21
207.204198
0
LINE
8
Image
10
176.419057
20
207.204198
11
178.121508
21
207.270534
0
LINE
8
Image
10
178.121508
20
207.270534
11
179.745959
21
207.576963
0
LINE
8
Image
10
179.745959
20
207.576963
11
183.251469
21
208.663501
0
LINE
8
Image
10
183.251469
20
208.663501
11
186.237762
21
209.867508
0
LINE
8
Image
10
186.237762
20
209.867508
11
187.543844
21
210.343845
0
LINE
8
Image
10
187.543844
20
210.343845
11
187.767655
21
210.402054
0
LINE
8
Image
10
187.767655
20
210.402054
11
187.793518
21
210.772690
0
LINE
8
Image
10
187.793518
20
210.772690
11
187.088192
21
213.627309
0
LINE
8
Image
10
187.088192
20
213.627309
11
186.631818
21
216.256568
0
LINE
8
Image
10
186.631818
20
216.256568
11
186.531015
21
220.777993
0
LINE
8
Image
10
186.531015
20
220.777993
11
186.613058
21
225.008684
0
LINE
8
Image
10
186.613058
20
225.008684
11
186.810309
21
228.077846
0
LINE
8
Image
10
186.810309
20
228.077846
11
187.531384
21
231.962851
0
LINE
8
Image
10
187.531384
20
231.962851
11
188.691670
21
236.286405
0
LINE
8
Image
10
188.691670
20
236.286405
11
190.063219
21
240.298066
0
LINE
8
Image
10
190.063219
20
240.298066
11
191.418083
21
243.247390
0
LINE
8
Image
10
191.418083
20
243.247390
11
193.108519
21
245.573532
0
LINE
8
Image
10
193.108519
20
245.573532
11
196.927285
21
250.474644
0
LINE
8
Image
10
196.927285
20
250.474644
11
199.677804
21
253.830719
0
LINE
8
Image
10
199.677804
20
253.830719
11
202.619655
21
256.688921
0
LINE
8
Image
10
202.619655
20
256.688921
11
206.201663
21
259.434796
0
LINE
8
Image
10
206.201663
20
259.434796
11
210.872651
21
262.453889
0
LINE
8
Image
10
210.872651
20
262.453889
11
215.401994
21
265.149172
0
LINE
8
Image
10
215.401994
20
265.149172
11
218.752274
21
266.836368
0
LINE
8
Image
10
218.752274
20
266.836368
11
221.999196
21
267.976481
0
LINE
8
Image
10
221.999196
20
267.976481
11
226.218465
21
269.030520
0
LINE
8
Image
10
226.218465
20
269.030520
11
229.609501
21
269.729883
0
LINE
8
Image
10
229.609501
20
269.729883
11
232.953150
21
270.258840
0
LINE
8
Image
10
232.953150
20
270.258840
11
236.237518
21
270.617010
0
LINE
8
Image
10
236.237518
20
270.617010
11
239.450712
21
270.804014
0
LINE
8
Image
10
239.450712
20
270.804014
11
242.580836
21
270.819473
0
LINE
8
Image
10
242.580836
20
270.819473
11
245.615997
21
270.663007
0
LINE
8
Image
10
245.615997
20
270.663007
11
248.544299
21
270.334235
0
LINE
8
Image
10
248.544299
20
270.334235
11
251.353850
21
269.832779
0
LINE
8
Image
10
251.353850
20
269.832779
11
257.188069
21
268.195569
0
LINE
8
Image
10
257.188069
20
268.195569
11
260.073751
21
267.198691
0
LINE
8
Image
10
260.073751
20
267.198691
11
262.077679
21
266.361597
0
LINE
8
Image
10
262.077679
20
266.361597
11
263.822258
21
265.255521
0
LINE
8
Image
10
263.822258
20
265.255521
11
266.170498
21
263.537968
0
LINE
8
Image
10
266.170498
20
263.537968
11
270.986385
21
259.928368
0
LINE
8
Image
10
270.986385
20
259.928368
11
272.827229
21
258.484709
0
LINE
8
Image
10
272.827229
20
258.484709
11
274.352668
21
256.909248
0
LINE
8
Image
10
274.352668
20
256.909248
11
275.876767
21
254.825087
0
LINE
8
Image
10
275.876767
20
254.825087
11
277.713593
21
251.855328
0
LINE
8
Image
10
277.713593
20
251.855328
11
280.967944
21
246.273996
0
LINE
8
Image
10
280.967944
20
246.273996
11
282.333053
21
243.416720
0
LINE
8
Image
10
282.333053
20
243.416720
11
283.406420
21
240.623273
0
LINE
8
Image
10
283.406420
20
240.623273
11
284.167030
21
237.919538
0
LINE
8
Image
10
284.167030
20
237.919538
11
284.677837
21
235.028476
0
LINE
8
Image
10
284.677837
20
235.028476
11
285.001796
21
231.673047
0
LINE
8
Image
10
285.001796
20
231.673047
11
285.160973
21
227.891694
0
LINE
8
Image
10
285.160973
20
227.891694
11
285.107255
21
224.268328
0
LINE
8
Image
10
285.107255
20
224.268328
11
284.836784
21
220.781690
0
LINE
8
Image
10
284.836784
20
220.781690
11
284.345700
21
217.410519
0
LINE
8
Image
10
284.345700
20
217.410519
11
283.630145
21
214.133556
0
LINE
8
Image
10
283.630145
20
214.133556
11
282.686260
21
210.929540
0
LINE
8
Image
10
282.686260
20
210.929540
11
281.510188
21
207.777212
0
LINE
8
Image
10
281.510188
20
207.777212
11
280.098068
21
204.655310
0
LINE
8
Image
10
280.098068
20
204.655310
11
278.614452
21
201.841198
0
LINE
8
Image
10
278.614452
20
201.841198
11
277.173526
21
199.527926
0
LINE
8
Image
10
277.173526
20
199.527926
11
275.751630
21
197.681117
0
LINE
8
Image
10
275.751630
20
197.681117
11
274.325105
21
196.266392
0
LINE
8
Image
10
274.325105
20
196.266392
11
268.936967
21
192.368074
0
LINE
8
Image
10
268.936967
20
192.368074
11
263.129267
21
188.502622
0
LINE
8
Image
10
263.129267
20
188.502622
11
261.643335
21
187.769257
0
LINE
8
Image
10
261.643335
20
187.769257
11
259.746377
21
187.033709
0
LINE
8
Image
10
259.746377
20
187.033709
11
255.641134
21
185.879011
0
LINE
8
Image
10
255.641134
20
185.879011
11
251.544286
21
184.786365
0
LINE
8
Image
10
251.544286
20
184.786365
11
248.762031
21
184.049826
0
LINE
8
Image
10
248.762031
20
184.049826
11
244.743463
21
183.187353
0
LINE
8
Image
10
244.743463
20
183.187353
11
241.848634
21
182.644070
0
LINE
8
Image
10
241.848634
20
182.644070
11
239.827914
21
182.376924
0
LINE
8
Image
10
239.827914
20
182.376924
11
237.783456
21
182.312734
0
LINE
8
Image
10
237.783456
20
182.312734
11
234.817413
21
182.378321
0
LINE
8
Image
10
234.817413
20
182.378321
11
229.174333
21
182.725280
0
LINE
8
Image
10
229.174333
20
182.725280
11
223.572635
21
183.634535
0
LINE
8
Image
10
223.572635
20
183.634535
11
220.383537
21
184.483043
0
LINE
8
Image
10
220.383537
20
184.483043
11
216.164311
21
186.177974
0
LINE
8
Image
10
216.164311
20
186.177974
11
209.108618
21
189.446424
0
LINE
8
Image
10
209.108618
20
189.446424
11
206.883977
21
190.729023
0
LINE
8
Image
10
206.883977
20
190.729023
11
204.923748
21
192.095376
0
LINE
8
Image
10
204.923748
20
192.095376
11
201.019644
21
194.928861
0
LINE
8
Image
10
201.019644
20
194.928861
11
199.790353
21
195.606567
0
LINE
8
Image
10
199.790353
20
195.606567
11
199.327135
21
195.590998
0
LINE
8
Image
10
199.327135
20
195.590998
11
198.695975
21
195.392839
0
LINE
8
Image
10
198.695975
20
195.392839
11
197.255299
21
195.023435
0
LINE
8
Image
10
197.255299
20
195.023435
11
195.360889
21
194.753135
0
LINE
8
Image
10
195.360889
20
194.753135
11
190.534038
21
194.512248
0
LINE
8
Image
10
190.534038
20
194.512248
11
184.861762
21
194.674991
0
LINE
8
Image
10
184.861762
20
194.674991
11
178.990400
21
195.246173
0
LINE
8
Image
10
178.990400
20
195.246173
11
175.337883
21
195.637603
0
LINE
8
Image
10
175.337883
20
195.637603
11
172.892164
21
195.654864
0
LINE
8
Image
10
172.892164
20
195.654864
11
170.873855
21
195.333960
0
LINE
8
Image
10
170.873855
20
195.333960
11
170.456847
21
195.032737
0
LINE
8
Image
10
170.456847
20
195.032737
11
170.206106
21
194.543091
0
LINE
8
Image
10
170.206106
20
194.543091
11
169.634787
21
193.536587
0
LINE
8
Image
10
169.634787
20
193.536587
11
168.565313
21
192.190662
0
LINE
8
Image
10
168.565313
20
192.190662
11
165.166472
21
188.702919
0
LINE
8
Image
10
165.166472
20
188.702919
11
160.478726
21
184.524606
0
LINE
8
Image
10
160.478726
20
184.524606
11
154.971216
21
180.100468
0
LINE
8
Image
10
154.971216
20
180.100468
11
148.124349
21
174.947072
0
LINE
8
Image
10
148.124349
20
174.947072
11
145.256067
21
173.138535
0
LINE
8
Image
10
145.256067
20
173.138535
11
144.388169
21
172.726032
0
LINE
8
Image
10
144.388169
20
172.726032
11
143.568642
21
172.489885
0
LINE
8
Image
10
143.568642
20
172.489885
11
140.890448
21
172.326345
0
LINE
8
Image
10
140.890448
20
172.326345
11
137.186286
21
172.480520
0
LINE
8
Image
10
137.186286
20
172.480520
11
137.186285
21
172.480520
 0 
ENDSEC
 0 
EOF